#N canvas 0 92 1728 480 10;
#X text 30 20 Scene_Harness.pd;
#X text 30 40 Use this for scene-by-scene listening/mixing. It steps through every authored scene directly without relying on zone routing.;
#X text 30 60 Open Main_scenes.pd first. Scene 9 is intentionally absent from soundwalk_scene.;
#X msg 30 110 1;
#X msg 90 110 2;
#X msg 150 110 3;
#X msg 210 110 4;
#X msg 270 110 4.5;
#X msg 330 110 5;
#X msg 390 110 6;
#X msg 450 110 7;
#X msg 510 110 8;
#X msg 570 110 10;
#X msg 30 180 11;
#X msg 90 180 12;
#X msg 150 180 13;
#X msg 210 180 14;
#X msg 270 180 15;
#X msg 330 180 16;
#X msg 390 180 16.5;
#X msg 450 180 16.75;
#X msg 510 180 17;
#X msg 570 180 18;
#X msg 30 250 19;
#X msg 90 250 20;
#X msg 150 250 21;
#X msg 210 250 22;
#X msg 270 250 23;
#X msg 330 250 23.1;
#X msg 390 250 23.2;
#X msg 450 250 24;
#X msg 510 250 24.1;
#X msg 570 250 24.2;
#X msg 30 320 25;
#X msg 90 320 25.5;
#X msg 150 320 26;
#X msg 210 320 26.5;
#X msg 270 320 27;
#X msg 330 320 27.5;
#X msg 390 320 28;
#X msg 450 320 28.5;
#X msg 510 320 29;
#X msg 570 320 30;
#X msg 630 320 31;
#X msg 690 320 32;
#X msg 750 320 33;
#X msg 810 320 34;
#X msg 870 320 35;
#X obj 900 170 soundwalk_scene;
#X floatatom 900 210 8 0 0 0 current_scene - - 0;
#X connect 3 0 48 0;
#X connect 4 0 48 0;
#X connect 5 0 48 0;
#X connect 6 0 48 0;
#X connect 7 0 48 0;
#X connect 8 0 48 0;
#X connect 9 0 48 0;
#X connect 10 0 48 0;
#X connect 11 0 48 0;
#X connect 12 0 48 0;
#X connect 13 0 48 0;
#X connect 14 0 48 0;
#X connect 15 0 48 0;
#X connect 16 0 48 0;
#X connect 17 0 48 0;
#X connect 18 0 48 0;
#X connect 19 0 48 0;
#X connect 20 0 48 0;
#X connect 21 0 48 0;
#X connect 22 0 48 0;
#X connect 23 0 48 0;
#X connect 24 0 48 0;
#X connect 25 0 48 0;
#X connect 26 0 48 0;
#X connect 27 0 48 0;
#X connect 28 0 48 0;
#X connect 29 0 48 0;
#X connect 30 0 48 0;
#X connect 31 0 48 0;
#X connect 32 0 48 0;
#X connect 33 0 48 0;
#X connect 34 0 48 0;
#X connect 35 0 48 0;
#X connect 36 0 48 0;
#X connect 37 0 48 0;
#X connect 38 0 48 0;
#X connect 39 0 48 0;
#X connect 40 0 48 0;
#X connect 41 0 48 0;
#X connect 42 0 48 0;
#X connect 43 0 48 0;
#X connect 44 0 48 0;
#X connect 45 0 48 0;
#X connect 46 0 48 0;
#X connect 47 0 48 0;
#X connect 48 0 49 0;
