#N canvas 92 68 1280 720 10;
#X declare -path Libs -path Audios -path Extras;
#X floatatom 30 80 5 1 35 0 zone_in - - 0;
#X obj 30 110 s zone;
#X obj 250 80 alexandria_family_harness_router;
#X obj 250 110 alexandria_family_progress_morph;
#X obj 250 170 r alex_target_scene;
#X floatatom 250 200 8 0 0 0 router_target_scene - - 0;
#X obj 250 240 r alex_morph_target_scene;
#X floatatom 250 270 8 0 0 0 morph_target_scene - - 0;
#X obj 250 310 alexandria_zone_scene_player;
#X obj 250 350 soundwalk_scene;
#X floatatom 250 390 8 0 0 0 current_scene - - 0;
#X obj 250 430 r alex_morph_scene_a;
#X floatatom 250 460 8 0 0 0 effective_scene - - 0;
#X obj 250 500 r alex_morph_scene_b;
#X floatatom 250 530 8 0 0 0 next_scene - - 0;
#X obj 500 170 r alex_router_scene_family;
#X floatatom 500 200 5 0 0 0 scene_family - - 0;
#X obj 500 240 r alex_router_family_progress;
#X floatatom 500 270 8 0 0 0 family_progress - - 0;
#X obj 500 310 r alex_router_loop_progress;
#X floatatom 500 340 8 0 0 0 loop_progress - - 0;
#X obj 500 380 r alex_morph_progress;
#X floatatom 500 410 8 0 0 0 morph_progress - - 0;
#X msg 30 170 1;
#X msg 60 170 4;
#X msg 90 170 8;
#X msg 120 170 12;
#X msg 150 170 17;
#X msg 180 170 22;
#X msg 210 170 27;
#X msg 240 170 31;
#X msg 270 170 35;
#X connect 0 0 1 0;
#X connect 4 0 5 0;
#X connect 6 0 7 0;
#X connect 7 0 8 0;
#X connect 8 0 9 0;
#X connect 9 0 10 0;
#X connect 11 0 12 0;
#X connect 13 0 14 0;
#X connect 15 0 16 0;
#X connect 17 0 18 0;
#X connect 19 0 20 0;
#X connect 21 0 22 0;
#X connect 23 0 1 0;
#X connect 24 0 1 0;
#X connect 25 0 1 0;
#X connect 26 0 1 0;
#X connect 27 0 1 0;
#X connect 28 0 1 0;
#X connect 29 0 1 0;
#X connect 30 0 1 0;
#X connect 31 0 1 0;
