#N canvas 207 120 560 320 12;
#X obj 40 40 inlet;
#X obj 40 70 route open start stop;
#X obj 170 40 adc~ 1;
#X obj 170 70 hip~ 60;
#X obj 170 100 *~;
#X obj 170 130 outlet~;
#X obj 260 100 line~;
#X obj 340 130 outlet;
#X obj 170 170 t b b;
#X msg 170 200 stop;
#X msg 250 200 1 20;
#X obj 340 170 t b b;
#X msg 340 200 0 80;
#X obj 420 200 del 90;
#X connect 0 0 1 0;
#X connect 1 1 8 0;
#X connect 1 2 11 0;
#X connect 2 0 3 0;
#X connect 3 0 4 0;
#X connect 4 0 5 0;
#X connect 6 0 4 1;
#X connect 8 0 9 0;
#X connect 8 1 10 0;
#X connect 9 0 13 0;
#X connect 10 0 6 0;
#X connect 11 0 12 0;
#X connect 11 1 13 0;
#X connect 12 0 6 0;
#X connect 13 0 7 0;
