#N canvas 162 84 1088 756 10;
#X obj 32 98 inlet;
#X obj 32 128 change;
#X obj 32 158 del 0;
#X obj 32 188 s \$0-evaluate;
#X obj 252 98 r alex_router_scene_family;
#X obj 252 128 v \$0-pending-family;
#X obj 432 98 r alex_morph_scene_a;
#X obj 432 128 v \$0-pending-a;
#X obj 592 98 r alex_morph_scene_b;
#X obj 592 128 v \$0-pending-b;
#X obj 32 238 r \$0-evaluate;
#X obj 32 268 t b b;
#X obj 32 298 v \$0-last-family;
#X obj 182 298 v \$0-pending-family;
#X obj 32 328 pack f f;
#X obj 32 358 expr if($f1 > 0 && $f1 == $f2 \, 1 \, 0);
#X obj 32 388 sel 0 1;
#X obj 32 418 s \$0-do-switch;
#X obj 182 418 s \$0-do-morph;
#X obj 32 728 outlet;
#X obj 392 238 r \$0-do-morph;
#X obj 392 268 t b b;
#X obj 392 298 v \$0-pending-a;
#X msg 392 328 scene \$1;
#X obj 542 298 v barMs;
#X obj 542 328 expr max($f1 * 0.75 \, 1500);
#X obj 542 358 t f b b;
#X obj 542 388 pack f f f;
#X obj 542 418 s alex_scene_morph_start;
#X obj 692 388 v \$0-pending-a;
#X obj 842 388 v \$0-pending-b;
#X obj 542 448 + 10;
#X obj 542 478 t b f;
#X obj 542 508 delay 0;
#X obj 542 538 t b b;
#X obj 542 568 v \$0-pending-b;
#X msg 542 598 scene \$1;
#X obj 692 568 v \$0-pending-family;
#X obj 692 598 v \$0-last-family;
#X obj 32 468 r \$0-do-switch;
#X obj 32 498 t b b;
#X obj 32 528 v barMs;
#X obj 182 528 v \$0-last-family;
#X obj 32 558 pack f f;
#X obj 32 588 expr if($f2 <= 0 \, 0 \, max($f1 * 0.5 \, 250)) \; if($f2 <= 0 \, 60 \, max($f1 * 0.5 \, 250)) \; max($f1 * 0.75 \, 1500);
#X msg 32 618 0 \$1;
#X obj 32 648 s sceneMasterFade;
#X obj 192 618 v \$0-in-ms;
#X obj 352 618 v \$0-morph-ms;
#X obj 32 678 t b f;
#X obj 32 708 delay 0;
#X obj 212 678 t b b b;
#X obj 212 708 v \$0-pending-a;
#X msg 212 738 scene \$1;
#X obj 352 708 v \$0-in-ms;
#X msg 352 738 1 \$1;
#X obj 352 768 s sceneMasterFade;
#X obj 512 708 v \$0-morph-ms;
#X obj 512 738 t f b b;
#X obj 512 768 pack f f f;
#X obj 512 798 s alex_scene_morph_start;
#X obj 662 768 v \$0-pending-a;
#X obj 812 768 v \$0-pending-b;
#X obj 512 828 + 10;
#X obj 512 858 t b f;
#X obj 512 888 delay 0;
#X obj 512 918 t b b;
#X obj 512 948 v \$0-pending-b;
#X msg 512 978 scene \$1;
#X obj 662 948 v \$0-pending-family;
#X obj 662 978 v \$0-last-family;
#X connect 0 0 1 0;
#X connect 1 0 2 0;
#X connect 2 0 3 0;
#X connect 4 0 5 0;
#X connect 6 0 7 0;
#X connect 8 0 9 0;
#X connect 10 0 11 0;
#X connect 11 0 12 0;
#X connect 11 1 13 0;
#X connect 12 0 14 0;
#X connect 13 0 14 1;
#X connect 14 0 15 0;
#X connect 15 0 16 0;
#X connect 16 0 17 0;
#X connect 16 1 18 0;
#X connect 20 0 21 0;
#X connect 21 0 24 0;
#X connect 21 1 22 0;
#X connect 22 0 23 0;
#X connect 23 0 19 0;
#X connect 24 0 25 0;
#X connect 25 0 26 0;
#X connect 25 0 31 0;
#X connect 26 0 27 0;
#X connect 26 1 29 0;
#X connect 26 2 30 0;
#X connect 27 0 28 0;
#X connect 29 0 27 1;
#X connect 30 0 27 2;
#X connect 31 0 32 0;
#X connect 32 0 33 0;
#X connect 32 1 33 1;
#X connect 33 0 34 0;
#X connect 34 0 35 0;
#X connect 34 1 37 0;
#X connect 35 0 36 0;
#X connect 36 0 19 0;
#X connect 37 0 38 0;
#X connect 39 0 40 0;
#X connect 40 0 41 0;
#X connect 40 1 42 0;
#X connect 41 0 43 0;
#X connect 42 0 43 1;
#X connect 43 0 44 0;
#X connect 43 0 49 0;
#X connect 44 1 47 0;
#X connect 44 2 48 0;
#X connect 44 0 45 0;
#X connect 45 0 46 0;
#X connect 47 0 54 0;
#X connect 48 0 57 0;
#X connect 49 0 50 0;
#X connect 49 1 50 1;
#X connect 50 0 51 0;
#X connect 51 0 57 0;
#X connect 51 1 54 0;
#X connect 51 2 52 0;
#X connect 52 0 53 0;
#X connect 53 0 19 0;
#X connect 54 0 55 0;
#X connect 55 0 56 0;
#X connect 57 0 58 0;
#X connect 57 0 63 0;
#X connect 58 0 59 0;
#X connect 58 1 61 0;
#X connect 58 2 62 0;
#X connect 59 0 60 0;
#X connect 61 0 59 1;
#X connect 62 0 59 2;
#X connect 63 0 64 0;
#X connect 64 0 65 0;
#X connect 64 1 65 1;
#X connect 65 0 66 0;
#X connect 66 0 67 0;
#X connect 66 1 69 0;
#X connect 67 0 68 0;
#X connect 68 0 19 0;
#X connect 69 0 70 0;
