#N canvas 157 78 988 560 10;
#X text 23 17 alexandria_family_harness_router.pd;
#X text 23 37 Converts [r zone] into scene-family data plus an initial target scene for harness testing.;
#X obj 33 82 alexandria_zone_scene_map;
#X obj 33 132 r alex_zone_id;
#X floatatom 33 162 5 0 0 0 alex_zone_id - - 0;
#X obj 33 192 change;
#X obj 33 222 t f f;
#X obj 33 252 expr $f1 - 1;
#X obj 33 282 text get \$0-zone-scenes;
#X obj 33 312 unpack f;
#X floatatom 33 342 8 0 0 0 target_scene - - 0;
#X obj 33 372 s alex_target_scene;
#X obj 190 132 r alex_scene_family;
#X floatatom 190 162 5 0 0 0 alex_scene_family - - 0;
#X obj 190 192 s alex_router_scene_family;
#X obj 355 132 r alex_family_progress;
#X floatatom 355 162 8 0 0 0 alex_family_progress - - 0;
#X obj 355 192 s alex_router_family_progress;
#X obj 560 132 r alex_loop_progress;
#X floatatom 560 162 8 0 0 0 alex_loop_progress - - 0;
#X obj 560 192 s alex_router_loop_progress;
#X obj 761 58 text define -k \$0-zone-scenes;
#A set 1 \; 3 \; 4.5 \; 6 \; 8 \; 10 \; 13 \; 15 \; 17 \; 20 \; 23.2 \; 24.2 \; 27 \; 28 \; 28 \; 28 \; 28.5 \; 28.5 \; 28.5 \; 29 \; 29 \; 29 \; 29 \; 30 \; 30 \; 30 \; 30 \; 31 \; 31 \; 32 \; 33 \; 33 \; 34 \; 35 \; 35 \;;
#X text 761 20 35-zone target scene map aligned to the real loop geometry and the revised timing arc.;
#X text 761 37 Zones 14-27 now carry scenes 28-30 \; zones 28-35 carry scenes 31-35.;
#X text 23 405 Sends:;
#X text 23 425 alex_target_scene;
#X text 23 445 alex_router_scene_family;
#X text 23 465 alex_router_family_progress;
#X text 23 485 alex_router_loop_progress;
#X connect 3 0 4 0;
#X connect 4 0 5 0;
#X connect 5 0 6 0;
#X connect 6 0 7 0;
#X connect 7 0 8 0;
#X connect 8 0 9 0;
#X connect 9 0 10 0;
#X connect 10 0 11 0;
#X connect 12 0 13 0;
#X connect 13 0 14 0;
#X connect 15 0 16 0;
#X connect 16 0 17 0;
#X connect 18 0 19 0;
#X connect 19 0 20 0;
