#N canvas 129 80 946 612 10;
#X obj 34 34 r alex_router_scene_family;
#X obj 34 64 change;
#X obj 34 94 t f f;
#X obj 34 124 s alex_morph_family;
#X obj 121 124 expr $f1 - 1;
#X obj 121 154 text get \$0-family-scenes;
#X obj 121 184 t b l l l;
#X obj 221 214 list store;
#X obj 371 214 list store;
#X obj 521 214 list length;
#X obj 521 244 expr max($f1 - 1 \, 1);
#X obj 521 274 v \$0-segments;
#X obj 121 304 del 0;
#X obj 121 334 s \$0-recompute;
#X obj 34 184 r alex_router_family_progress;
#X obj 34 214 t b f;
#X obj 121 214 v \$0-progress;
#X obj 34 244 del 0;
#X obj 34 274 s \$0-recompute;
#X obj 221 334 r \$0-recompute;
#X obj 221 364 t b b;
#X obj 311 394 v \$0-segments;
#X obj 221 394 v \$0-progress;
#X obj 221 424 pack f f;
#X obj 221 454 expr int(min($f1 \, 0.9999) * $f2) \; min(int(min($f1 \, 0.9999) * $f2) + 1 \, $f2) \; (min($f1 \, 0.9999) * $f2) - int(min($f1 \, 0.9999) * $f2);
#X msg 221 494 get \$1 1;
#X obj 221 524 unpack f;
#X obj 221 554 s alex_morph_scene_a;
#X msg 371 494 get \$1 1;
#X obj 371 524 unpack f;
#X obj 371 554 s alex_morph_scene_b;
#X obj 521 494 s alex_morph_progress;
#X obj 661 34 r alex_target_scene;
#X obj 661 64 s alex_morph_target_scene;
#X obj 661 104 text define -k \$0-family-scenes;
#A set 1 2 3 4 4.5 \; 4.5 5 6 7 8 10 \; 10 11 12 13 14 15 \; 15 16 16.5 16.75 17 18 19 20 \; 20 21 22 23 23.1 23.2 24 24.1 24.2 \; 24.2 25 25.5 26 26.5 27 27.5 \; 28 28.5 29 30 30 \; 31 32 33 34 35 35 \;;
#X connect 0 0 1 0;
#X connect 1 0 2 0;
#X connect 2 0 3 0;
#X connect 2 1 4 0;
#X connect 4 0 5 0;
#X connect 5 0 6 0;
#X connect 6 0 12 0;
#X connect 6 1 7 1;
#X connect 6 2 8 1;
#X connect 6 3 9 0;
#X connect 9 0 10 0;
#X connect 10 0 11 0;
#X connect 12 0 13 0;
#X connect 14 0 15 0;
#X connect 15 0 17 0;
#X connect 15 1 16 0;
#X connect 17 0 18 0;
#X connect 19 0 20 0;
#X connect 20 0 22 0;
#X connect 20 1 21 0;
#X connect 21 0 23 1;
#X connect 22 0 23 0;
#X connect 23 0 24 0;
#X connect 24 0 25 0;
#X connect 24 1 28 0;
#X connect 24 2 31 0;
#X connect 25 0 7 0;
#X connect 7 0 26 0;
#X connect 26 0 27 0;
#X connect 28 0 8 0;
#X connect 8 0 29 0;
#X connect 29 0 30 0;
#X connect 32 0 33 0;
