#N canvas 152 76 1144 812 10;
#X text 28 18 alexandria_scene_transition_manager.pd;
#X text 28 38 Same-family moves use temporal scene-state morphing.;
#X text 28 58 Different-family moves keep the safe master fade/switch/fade.;
#X obj 32 98 inlet;
#X obj 32 128 change;
#X obj 32 158 t f b;
#X obj 32 188 v \$0-next-scene;
#X obj 103 188 s \$0-evaluate;
#X obj 252 98 r alex_router_scene_family;
#X obj 252 128 v \$0-pending-family;
#X obj 32 228 r \$0-evaluate;
#X obj 32 258 t b b;
#X obj 32 288 v \$0-last-family;
#X obj 182 288 v \$0-pending-family;
#X obj 32 318 pack f f;
#X obj 32 348 expr if($f1 > 0 && $f1 == $f2 \, 1 \, 0);
#X obj 32 378 sel 0 1;
#X obj 32 408 s \$0-do-switch;
#X obj 182 408 s \$0-do-morph;
#X obj 32 758 outlet;
#X obj 392 98 r \$0-do-morph;
#X obj 392 128 v barMs;
#X obj 392 158 expr max($f1 * 0.75 \, 1500);
#X obj 392 188 t f b b;
#X obj 392 218 pack f f f;
#X obj 392 248 t l l;
#X obj 392 278 s alex_scene_morph_start;
#X obj 592 278 unpack f f f;
#X obj 592 308 + 10;
#X obj 592 338 delay 0;
#X obj 592 368 t b b b;
#X obj 592 398 v \$0-next-scene;
#X msg 592 428 scene \$1;
#X obj 722 398 v \$0-pending-family;
#X obj 722 428 v \$0-last-family;
#X obj 852 398 v \$0-next-scene;
#X obj 852 428 v \$0-last-scene;
#X obj 492 188 v \$0-last-scene;
#X obj 622 188 v \$0-next-scene;
#X obj 32 458 r \$0-do-switch;
#X obj 32 488 t b b b;
#X obj 32 518 v barMs;
#X obj 172 518 v \$0-last-family;
#X obj 322 518 v \$0-pending-family;
#X obj 32 548 pack f f f;
#X obj 32 578 expr if($f2 <= 0 \, 0 \, max($f1 * 0.5 \, 250)) \; if($f2 <= 0 \, 60 \, max($f1 * 0.5 \, 250));
#X obj 32 608 t f f f;
#X msg 32 638 0 \$1;
#X obj 32 668 s sceneMasterFade;
#X obj 172 638 delay 0;
#X obj 322 638 + 10;
#X obj 322 668 delay 0;
#X obj 462 638 v \$0-in-ms;
#X obj 172 668 t b b b;
#X obj 172 698 v \$0-next-scene;
#X msg 172 728 scene \$1;
#X obj 302 698 v \$0-pending-family;
#X obj 302 728 v \$0-last-family;
#X obj 432 698 v \$0-next-scene;
#X obj 432 728 v \$0-last-scene;
#X obj 322 698 v \$0-in-ms;
#X msg 322 728 1 \$1;
#X obj 322 758 s sceneMasterFade;
#X connect 3 0 4 0;
#X connect 4 0 5 0;
#X connect 5 0 6 0;
#X connect 5 1 7 0;
#X connect 8 0 9 0;
#X connect 10 0 11 0;
#X connect 11 0 12 0;
#X connect 11 1 13 0;
#X connect 12 0 14 0;
#X connect 13 0 14 1;
#X connect 14 0 15 0;
#X connect 15 0 16 0;
#X connect 16 0 17 0;
#X connect 16 1 18 0;
#X connect 20 0 21 0;
#X connect 21 0 22 0;
#X connect 22 0 23 0;
#X connect 23 0 24 0;
#X connect 23 1 37 0;
#X connect 23 2 38 0;
#X connect 24 0 25 0;
#X connect 25 0 26 0;
#X connect 25 1 27 0;
#X connect 27 0 28 0;
#X connect 28 0 29 0;
#X connect 29 0 30 0;
#X connect 30 0 31 0;
#X connect 30 1 33 0;
#X connect 30 2 35 0;
#X connect 31 0 32 0;
#X connect 32 0 19 0;
#X connect 33 0 34 0;
#X connect 35 0 36 0;
#X connect 37 0 24 1;
#X connect 38 0 24 2;
#X connect 39 0 40 0;
#X connect 40 0 41 0;
#X connect 40 1 42 0;
#X connect 40 2 43 0;
#X connect 41 0 44 0;
#X connect 42 0 44 1;
#X connect 43 0 44 2;
#X connect 44 0 45 0;
#X connect 45 0 46 0;
#X connect 45 1 52 0;
#X connect 46 0 47 0;
#X connect 46 1 49 0;
#X connect 46 2 50 0;
#X connect 47 0 48 0;
#X connect 49 0 53 0;
#X connect 50 0 51 0;
#X connect 51 0 60 0;
#X connect 52 0 60 0;
#X connect 53 0 54 0;
#X connect 53 1 56 0;
#X connect 53 2 58 0;
#X connect 54 0 55 0;
#X connect 55 0 19 0;
#X connect 56 0 57 0;
#X connect 58 0 59 0;
#X connect 60 0 61 0;
#X connect 61 0 62 0;
