#N canvas 165 90 936 520 10;
#X text 30 19 alexandria_scene_morph_engine.pd;
#X text 30 39 Temporal scene morph engine driven by scene A/B and morph time.;
#X obj 30 79 loadbang;
#X obj 30 109 t b b b;
#X msg 30 139 read ../Extras/alex_scene_ids.txt;
#X msg 280 139 read ../Extras/alex_scene_morph_values.txt;
#X obj 30 169 text define \$0-scene-ids;
#X obj 280 169 text define \$0-scene-morph-data;
#X obj 280 199 clone -s 1 alex_scene_param_morph 230 \$0;
#X obj 530 139 del 0;
#X obj 530 169 s alex_scene_data_ready;
#X obj 30 249 r alex_scene_morph_start;
#X obj 30 279 unpack f f f;
#X obj 30 309 f;
#X obj 160 309 text search \$0-scene-ids;
#X obj 360 309 text search \$0-scene-ids;
#X obj 360 339 t b f;
#X msg 30 369 0 \, 1 \$1;
#X obj 30 399 line 0 30;
#X obj 30 429 pack f f f;
#X obj 30 459 s alex_scene_morph_state;
#X connect 2 0 3 0;
#X connect 3 0 9 0;
#X connect 3 1 5 0;
#X connect 3 2 4 0;
#X connect 4 0 6 0;
#X connect 5 0 7 0;
#X connect 9 0 10 0;
#X connect 11 0 12 0;
#X connect 12 0 13 0;
#X connect 12 1 14 0;
#X connect 12 2 15 0;
#X connect 13 0 17 0;
#X connect 14 0 19 1;
#X connect 15 0 16 0;
#X connect 16 0 13 0;
#X connect 16 1 19 2;
#X connect 17 0 18 0;
#X connect 18 0 19 0;
#X connect 19 0 20 0;
