#N canvas 169 94 1034 660 10;
#X text 28 18 alex_scene_param_morph.pd;
#X text 28 38 Per-parameter morph worker. Args: clone-index \, parent \$0.;
#X obj 28 78 r alex_scene_data_ready;
#X obj 28 108 f \$1;
#X obj 28 138 - 1;
#X obj 28 168 text get \$2-scene-morph-data;
#X obj 28 198 list split 1;
#X obj 28 228 list trim;
#X obj 28 258 symbol;
#X obj 178 198 list split 1;
#X obj 178 228 list trim;
#X obj 178 258 symbol;
#X obj 338 228 t l l;
#X obj 338 258 list store;
#X obj 518 258 list store;
#X obj 178 288 sel lin fade step bool;
#X msg 178 318 1;
#X msg 228 318 0;
#X msg 278 318 0;
#X msg 178 358 0;
#X msg 228 358 1;
#X msg 278 358 0;
#X msg 178 398 0;
#X msg 228 398 0;
#X msg 278 398 1;
#X obj 28 588 pack f s;
#X msg 28 618 \; \$2 \$1;
#X obj 698 78 r alex_scene_morph_state;
#X obj 698 108 unpack f f f;
#X obj 698 138 f;
#X msg 808 138 get \$1 1;
#X msg 928 138 get \$1 1;
#X obj 808 168 unpack f;
#X obj 928 168 unpack f;
#X obj 928 198 t b f;
#X obj 698 228 pack f f f;
#X obj 698 258 t l l l;
#X obj 698 288 spigot;
#X obj 788 288 spigot;
#X obj 878 288 spigot;
#X obj 698 318 unpack f f f;
#X obj 698 348 expr $f2 + (($f3 - $f2) * $f1);
#X obj 788 318 unpack f f f;
#X obj 788 348 expr if($f1 < 0.5 \, $f2 \, $f3);
#X obj 788 378 int;
#X obj 878 318 unpack f f f;
#X obj 878 348 expr if($f1 <= 0 \, $f2 \, if($f1 >= 1 \, $f3 \, max($f2 \, $f3)));
#X obj 878 378 int;
#X connect 2 0 3 0;
#X connect 3 0 4 0;
#X connect 4 0 5 0;
#X connect 5 0 6 0;
#X connect 6 0 7 0;
#X connect 6 1 9 0;
#X connect 7 0 8 0;
#X connect 8 0 25 1;
#X connect 9 0 10 0;
#X connect 9 1 12 0;
#X connect 10 0 11 0;
#X connect 11 0 15 0;
#X connect 12 0 13 0;
#X connect 12 1 14 0;
#X connect 15 0 16 0;
#X connect 15 0 17 0;
#X connect 15 0 18 0;
#X connect 15 1 16 0;
#X connect 15 1 17 0;
#X connect 15 1 18 0;
#X connect 15 2 19 0;
#X connect 15 2 20 0;
#X connect 15 2 21 0;
#X connect 15 3 22 0;
#X connect 15 3 23 0;
#X connect 15 3 24 0;
#X connect 16 0 37 1;
#X connect 17 0 38 1;
#X connect 18 0 39 1;
#X connect 19 0 37 1;
#X connect 20 0 38 1;
#X connect 21 0 39 1;
#X connect 22 0 37 1;
#X connect 23 0 38 1;
#X connect 24 0 39 1;
#X connect 25 0 26 0;
#X connect 27 0 28 0;
#X connect 28 0 29 0;
#X connect 28 1 30 0;
#X connect 28 2 31 0;
#X connect 29 0 35 0;
#X connect 30 0 13 0;
#X connect 31 0 14 0;
#X connect 32 0 35 1;
#X connect 33 0 34 0;
#X connect 34 0 29 0;
#X connect 34 1 35 2;
#X connect 35 0 36 0;
#X connect 36 0 37 0;
#X connect 36 1 38 0;
#X connect 36 2 39 0;
#X connect 37 0 40 0;
#X connect 38 0 42 0;
#X connect 39 0 45 0;
#X connect 40 0 41 0;
#X connect 41 0 25 0;
#X connect 42 0 43 0;
#X connect 43 0 44 0;
#X connect 44 0 25 0;
#X connect 45 0 46 0;
#X connect 46 0 47 0;
#X connect 47 0 25 0;
