#N canvas 208 233 577 513 10;
#X obj 88 2 inlet;
#X obj 88 25 unpack f f;
#X obj 86 263 *~;
#X obj 151 97 > 0;
#X obj 86 286 outlet~;
#X obj 151 121 sel 0 1;
#X obj 201 183 vline~;
#X obj 201 207 *~;
#X obj 40 89 mtof~;
#X obj 76 140 cos~;
#X obj 76 164 *~;
#X obj 76 188 /~ 6;
#X msg 151 145 0 140;
#X obj 40 117 phasor~;
#X obj 88 49 sig~ 50;
#X obj 40 228 cos~;
#X msg 201 159 1 2 \, 0.42 220 2 \, 0 850 222;
#X connect 0 0 1 0;
#X connect 1 0 14 0;
#X connect 1 1 3 0;
#X connect 2 0 4 0;
#X connect 3 0 5 0;
#X connect 5 0 12 0;
#X connect 5 1 16 0;
#X connect 6 0 7 0;
#X connect 6 0 7 1;
#X connect 7 0 2 1;
#X connect 7 0 10 1;
#X connect 8 0 13 0;
#X connect 9 0 10 0;
#X connect 10 0 11 0;
#X connect 11 0 15 0;
#X connect 12 0 6 0;
#X connect 13 0 9 0;
#X connect 13 0 15 0;
#X connect 14 0 8 0;
#X connect 15 0 2 0;
#X connect 16 0 6 0;
