#N canvas 120 80 760 620 12;
#X obj 30 25 inlet;
#X obj 30 55 t b l;
#X obj 30 85 unpack f f f;
#X obj 30 115 f;
#X obj 120 115 f;
#X obj 210 115 f;
#X obj 30 145 t b b b;
#X obj 30 175 f;
#X obj 30 205 mtof;
#X obj 30 235 t f f f b b;
#X obj 30 265 osc~;
#X obj 120 235 * 2.01;
#X obj 120 265 osc~;
#X obj 210 235 * 3.15;
#X obj 210 265 osc~;
#X obj 30 295 *~ 0.48;
#X obj 120 295 *~ 0.06;
#X obj 210 295 *~ 0.015;
#X obj 30 325 +~;
#X obj 30 355 +~;
#X obj 30 385 lop~ 1800;
#X obj 30 415 lop~ 1800;
#X obj 30 445 hip~ 40;
#X obj 30 505 *~;
#X obj 120 505 vline~;
#X obj 30 540 outlet~;
#X obj 430 25 r chmCutoff;
#X obj 430 55 route float;
#X obj 430 85 f 2200;
#X obj 430 205 random 401;
#X obj 430 235 - 200;
#X obj 430 265 t b f;
#X obj 430 295 +;
#X obj 430 325 clip 800 4200;
#X obj 430 355 pack f 60;
#X obj 430 385 line;
#X obj 580 205 random 141;
#X obj 580 235 + 120;
#X obj 120 175 f;
#X obj 120 205 expr 0.03 + ($f1*0.12);
#X obj 210 175 f;
#X obj 210 205 max 500;
#X obj 120 445 pack f f f;
#X msg 120 475 0 \, \$3 \$2 \, 0 \$1 \$2;
#X connect 0 0 1 0;
#X connect 1 0 6 0;
#X connect 1 1 2 0;
#X connect 2 0 3 0;
#X connect 2 1 4 0;
#X connect 2 2 5 0;
#X connect 3 0 7 1;
#X connect 4 0 38 1;
#X connect 5 0 40 1;
#X connect 6 0 7 0;
#X connect 6 1 38 0;
#X connect 6 2 40 0;
#X connect 7 0 8 0;
#X connect 8 0 9 0;
#X connect 9 0 10 0;
#X connect 9 1 11 0;
#X connect 9 2 13 0;
#X connect 9 3 29 0;
#X connect 9 4 36 0;
#X connect 10 0 15 0;
#X connect 11 0 12 0;
#X connect 12 0 16 0;
#X connect 13 0 14 0;
#X connect 14 0 17 0;
#X connect 15 0 18 0;
#X connect 16 0 18 1;
#X connect 17 0 19 1;
#X connect 18 0 19 0;
#X connect 19 0 20 0;
#X connect 20 0 21 0;
#X connect 21 0 22 0;
#X connect 22 0 23 0;
#X connect 23 0 25 0;
#X connect 24 0 23 1;
#X connect 26 0 27 0;
#X connect 27 0 28 1;
#X connect 28 0 32 0;
#X connect 29 0 30 0;
#X connect 30 0 31 0;
#X connect 31 0 28 0;
#X connect 31 1 32 1;
#X connect 32 0 33 0;
#X connect 33 0 34 0;
#X connect 34 0 35 0;
#X connect 35 0 20 1;
#X connect 35 0 21 1;
#X connect 36 0 37 0;
#X connect 37 0 42 1;
#X connect 38 0 39 0;
#X connect 39 0 42 2;
#X connect 40 0 41 0;
#X connect 41 0 42 0;
#X connect 42 0 43 0;
#X connect 43 0 24 0;
