#N canvas 120 80 900 640 12;
#X obj 30 25 inlet~;
#X obj 150 25 inlet~;
#X obj 30 65 +~;
#X obj 30 95 delwrite~ \$0-dl 5000;
#X obj 150 65 +~;
#X obj 150 95 delwrite~ \$0-dr 5000;
#X obj 30 135 vd~ \$0-dl;
#X obj 150 135 vd~ \$0-dr;
#X obj 30 175 else/pitch.shift~ 0 90;
#X obj 150 175 else/pitch.shift~ 0 90;
#X obj 30 215 lop~ 2200;
#X obj 150 215 lop~ 2200;
#X obj 30 255 *~;
#X obj 150 255 *~;
#X obj 30 295 outlet~;
#X obj 150 295 outlet~;
#X obj 30 335 lop~ 1800;
#X obj 150 335 lop~ 1800;
#X obj 30 375 *~;
#X obj 150 375 *~;
#X obj 330 25 r HarpDelayMs;
#X obj 330 55 route float;
#X obj 330 85 clip 120 2400;
#X obj 330 115 pack f 80;
#X obj 330 145 line~;
#X obj 450 145 *~ 1.22;
#X obj 330 185 r HarpDelayFb;
#X obj 330 215 route float;
#X obj 330 245 clip 0 0.85;
#X obj 330 275 sig~;
#X obj 480 185 r HarpDelayWet;
#X obj 480 215 route float;
#X obj 480 245 clip 0 0.7;
#X obj 480 275 sig~;
#X obj 630 25 r HarpDelayTone;
#X obj 630 55 route float;
#X obj 630 85 clip 800 4000;
#X obj 630 115 pack f 80;
#X obj 630 145 line;
#X obj 630 185 r \$1-harp_delay_cents;
#X obj 630 215 route float;
#X obj 630 245 clip 0 700;
#X obj 630 275 pack f 60;
#X obj 630 305 line;
#X obj 760 25 loadbang;
#X msg 760 55 432;
#X obj 760 95 r HarpToggle;
#X obj 760 125 route float;
#X obj 760 155 sel 0 1;
#X obj 760 185 t b b;
#X msg 810 215 stop;
#X obj 760 245 delay 120;
#X msg 760 275 0;
#X obj 840 185 t b b;
#X msg 890 215 stop;
#X msg 840 275 1;
#X obj 760 305 switch~;
#X connect 0 0 2 0;
#X connect 1 0 4 0;
#X connect 2 0 3 0;
#X connect 4 0 5 0;
#X connect 6 0 8 0;
#X connect 6 0 16 0;
#X connect 7 0 9 0;
#X connect 7 0 17 0;
#X connect 8 0 10 0;
#X connect 9 0 11 0;
#X connect 10 0 12 0;
#X connect 11 0 13 0;
#X connect 12 0 14 0;
#X connect 13 0 15 0;
#X connect 16 0 18 0;
#X connect 17 0 19 0;
#X connect 18 0 2 1;
#X connect 19 0 4 1;
#X connect 20 0 21 0;
#X connect 21 0 22 0;
#X connect 22 0 23 0;
#X connect 23 0 24 0;
#X connect 24 0 6 0;
#X connect 24 0 25 0;
#X connect 25 0 7 0;
#X connect 26 0 27 0;
#X connect 27 0 28 0;
#X connect 28 0 29 0;
#X connect 29 0 18 1;
#X connect 29 0 19 1;
#X connect 30 0 31 0;
#X connect 31 0 32 0;
#X connect 32 0 33 0;
#X connect 33 0 12 1;
#X connect 33 0 13 1;
#X connect 34 0 35 0;
#X connect 35 0 36 0;
#X connect 36 0 37 0;
#X connect 37 0 38 0;
#X connect 38 0 10 1;
#X connect 38 0 11 1;
#X connect 38 0 16 1;
#X connect 38 0 17 1;
#X connect 39 0 40 0;
#X connect 40 0 41 0;
#X connect 41 0 42 0;
#X connect 42 0 43 0;
#X connect 43 0 8 1;
#X connect 43 0 9 1;
#X connect 44 0 45 0;
#X connect 45 0 40 0;
#X connect 46 0 47 0;
#X connect 47 0 48 0;
#X connect 48 0 49 0;
#X connect 48 1 53 0;
#X connect 49 0 51 0;
#X connect 49 1 50 0;
#X connect 50 0 51 0;
#X connect 51 0 52 0;
#X connect 52 0 56 0;
#X connect 53 0 55 0;
#X connect 53 1 54 0;
#X connect 54 0 51 0;
#X connect 55 0 56 0;
