#N canvas 180 120 860 620 10;
#X obj 30 20 inlet;
#X obj 30 50 t f b;
#X obj 30 80 f;
#X obj 110 80 del 0;
#X obj 110 108 t b b;
#X obj 30 110 mtof;
#X obj 30 140 t f f;
#X obj 30 170 sig~;
#X obj 30 200 osc~;
#X obj 30 230 *~ 0.78;
#X obj 130 170 + 0.08;
#X obj 130 200 sig~;
#X obj 130 230 osc~;
#X obj 130 260 *~ 0.12;
#X obj 30 260 +~;
#X obj 30 290 lop~ 1400;
#X obj 280 20 r prog2Atk;
#X obj 280 48 clip 10 1500;
#X obj 280 76 f 220;
#X obj 360 20 r prog2Dec;
#X obj 360 48 clip 120 8000;
#X obj 360 76 f 2400;
#X obj 440 20 r prog2Sus;
#X obj 440 48 clip 0.08 0.92;
#X obj 440 76 f 0.62;
#X obj 520 20 r prog2Rel;
#X obj 520 48 max 20;
#X obj 520 76 f 2600;
#X obj 600 20 r chord_ms_prog2;
#X obj 600 48 * 1.15;
#X obj 600 76 max 1200;
#X obj 600 104 f 2200;
#X obj 280 130 t b b b b b;
#X obj 280 158 pack f f f f f;
#X msg 280 186 0 16 \, 0.54 \$1 16 \, \$3 \$2 \$1 \, 0 \$4 \$5;
#X obj 280 214 vline~;
#X obj 30 320 *~;
#X obj 30 350 *~ 0.9;
#X obj 430 290 loadbang;
#X obj 430 318 f \$1;
#X obj 430 346 * 0.25;
#X obj 430 374 + 0.125;
#X obj 430 402 clip 0.05 0.95;
#X obj 430 430 t f f;
#X obj 430 458 expr sqrt(1-$f1);
#X obj 550 458 expr sqrt($f1);
#X obj 430 486 sig~;
#X obj 550 486 sig~;
#X obj 30 380 *~;
#X obj 130 380 *~;
#X obj 30 410 throw~ prog2L;
#X obj 130 410 throw~ prog2R;
#X obj 30 410 r prog2Morph;
#X obj 30 438 clip 0 1;
#X obj 30 466 sig~;
#X obj 190 410 loadbang;
#X obj 190 438 f \$1;
#X obj 190 466 * 0.01;
#X obj 190 494 + 0.035;
#X obj 190 522 osc~;
#X obj 190 550 *~ 0.12;
#X obj 30 494 +~;
#X obj 30 522 clip~ 0 1;
#X obj 30 550 expr~ 1-$v1;
#X obj 150 550 *~ 1.35;
#X obj 150 578 +~ 1;
#X obj 330 230 *~;
#X obj 330 258 expr~ tanh($v1);
#X obj 30 578 *~;
#X obj 180 578 *~;
#X obj 30 606 +~;
#X obj 200 20 loadbang;
#X obj 200 48 f \$1;
#X obj 200 76 - 1;
#X obj 200 104 * 20;
#X connect 0 0 1 0;
#X connect 1 0 2 1;
#X connect 1 1 3 0;
#X connect 2 0 5 0;
#X connect 3 0 4 0;
#X connect 4 0 32 0;
#X connect 4 1 2 0;
#X connect 5 0 6 0;
#X connect 6 0 7 0;
#X connect 6 1 10 0;
#X connect 7 0 8 0;
#X connect 8 0 9 0;
#X connect 10 0 11 0;
#X connect 11 0 12 0;
#X connect 9 0 14 0;
#X connect 13 0 14 1;
#X connect 15 0 36 0;
#X connect 16 0 17 0;
#X connect 17 0 18 1;
#X connect 18 0 33 0;
#X connect 19 0 20 0;
#X connect 20 0 21 1;
#X connect 21 0 33 1;
#X connect 22 0 23 0;
#X connect 23 0 24 1;
#X connect 24 0 33 2;
#X connect 25 0 26 0;
#X connect 26 0 27 1;
#X connect 27 0 33 3;
#X connect 28 0 29 0;
#X connect 29 0 30 0;
#X connect 30 0 31 1;
#X connect 31 0 33 4;
#X connect 32 0 18 0;
#X connect 32 1 21 0;
#X connect 32 2 24 0;
#X connect 32 3 27 0;
#X connect 32 4 31 0;
#X connect 33 0 34 0;
#X connect 34 0 35 0;
#X connect 35 0 36 1;
#X connect 36 0 37 0;
#X connect 37 0 48 0;
#X connect 37 0 49 0;
#X connect 38 0 39 0;
#X connect 39 0 40 0;
#X connect 40 0 41 0;
#X connect 41 0 42 0;
#X connect 42 0 43 0;
#X connect 43 0 44 0;
#X connect 43 1 45 0;
#X connect 44 0 46 0;
#X connect 45 0 47 0;
#X connect 46 0 48 1;
#X connect 47 0 49 1;
#X connect 48 0 50 0;
#X connect 49 0 51 0;
#X connect 52 0 53 0;
#X connect 53 0 54 0;
#X connect 54 0 61 0;
#X connect 55 0 56 0;
#X connect 56 0 57 0;
#X connect 57 0 58 0;
#X connect 58 0 59 0;
#X connect 59 0 60 0;
#X connect 60 0 61 1;
#X connect 61 0 62 0;
#X connect 62 0 63 0;
#X connect 62 0 64 0;
#X connect 64 0 65 0;
#X connect 14 0 66 0;
#X connect 63 0 66 1;
#X connect 66 0 67 0;
#X connect 14 0 68 0;
#X connect 62 0 68 1;
#X connect 67 0 69 0;
#X connect 65 0 69 1;
#X connect 68 0 70 0;
#X connect 69 0 70 1;
#X connect 70 0 15 0;
#X connect 71 0 72 0;
#X connect 72 0 73 0;
#X connect 73 0 74 0;
#X connect 74 0 3 1;
