#N canvas 180 120 980 700 10;
#X obj 30 20 inlet;
#X obj 30 50 t f b b;
#X obj 30 80 mtof;
#X obj 30 110 t f f f f f;
#X obj 30 140 sig~;
#X obj 30 170 osc~;
#X obj 30 200 *~ 0.42;
#X obj 140 140 * 0.997;
#X obj 140 170 sig~;
#X obj 140 200 osc~;
#X obj 140 230 *~ 0.15;
#X obj 250 140 * 1.0045;
#X obj 250 170 sig~;
#X obj 250 200 osc~;
#X obj 250 230 *~ 0.15;
#X obj 360 140 * 0.5;
#X obj 360 170 sig~;
#X obj 360 200 osc~;
#X obj 360 230 *~ 0.16;
#X obj 470 140 * 2;
#X obj 470 170 sig~;
#X obj 470 200 osc~;
#X obj 470 230 *~ 0.08;
#X obj 30 260 +~;
#X obj 30 290 +~;
#X obj 30 320 +~;
#X obj 30 350 +~;
#X obj 30 380 lop~ 2400;
#X obj 620 20 r prog1Atk;
#X obj 620 48 clip 1 4000;
#X obj 620 76 f 180;
#X obj 700 20 r prog1Dec;
#X obj 700 48 clip 60 12000;
#X obj 700 76 f 5200;
#X obj 780 20 r prog1Sus;
#X obj 780 48 clip 0.05 0.98;
#X obj 780 76 f 0.78;
#X obj 860 20 r prog1Rel;
#X obj 860 48 clip 1 12000;
#X obj 860 76 f 3600;
#X obj 620 110 r chord_ms;
#X obj 620 138 * 1.95;
#X obj 620 166 max 3200;
#X obj 620 194 f 4200;
#X obj 620 224 t b b b b b;
#X obj 620 252 pack f f f f f;
#X msg 620 280 0 10 \, 0.97 \$1 10 \, \$3 \$2 \$1 \, 0 \$4 \$5;
#X obj 620 308 vline~;
#X obj 30 520 *~;
#X obj 30 550 *~ 0.95;
#X obj 220 410 loadbang;
#X obj 220 438 f \$1;
#X obj 220 466 * 0.006;
#X obj 220 494 + 0.014;
#X obj 220 522 osc~;
#X obj 220 550 *~ 220;
#X obj 220 578 +~ 820;
#X obj 30 440 vcf~ 820 0.32;
#X obj 30 470 *~ 0.38;
#X obj 30 500 +~;
#X obj 420 410 loadbang;
#X obj 420 438 f \$1;
#X obj 420 466 * 0.004;
#X obj 420 494 + 0.01;
#X obj 420 522 osc~;
#X obj 420 578 +~ 0.96;
#X obj 30 580 *~;
#X msg 520 340 0 \, 0.06 45 \, 0 420 45;
#X obj 520 368 vline~;
#X obj 520 396 noise~;
#X obj 520 424 lop~ 1800;
#X obj 520 452 hip~ 180;
#X obj 520 480 *~;
#X obj 520 508 *~ 0.045;
#X obj 30 610 +~;
#X obj 30 640 expr~ tanh($v1*1.08);
#X obj 30 670 *~ 0.82;
#X obj 220 610 loadbang;
#X obj 220 638 f \$1;
#X obj 220 666 * 0.18;
#X obj 220 694 + 0.16;
#X obj 220 722 clip 0.08 0.88;
#X obj 220 750 sig~;
#X obj 420 610 loadbang;
#X obj 420 638 f \$1;
#X obj 420 666 * 0.011;
#X obj 420 694 + 0.019;
#X obj 420 722 osc~;
#X obj 420 750 *~ 0.07;
#X obj 420 778 +~;
#X obj 420 806 clip~ 0.05 0.95;
#X obj 420 834 expr~ sqrt(1-$v1);
#X obj 540 834 expr~ sqrt($v1);
#X obj 30 700 *~;
#X obj 150 700 *~;
#X obj 30 730 throw~ prog1L;
#X obj 150 730 throw~ prog1R;
#X obj 476 544 *~;
#X connect 0 0 1 0;
#X connect 1 0 2 0;
#X connect 1 1 44 0;
#X connect 1 2 67 0;
#X connect 2 0 3 0;
#X connect 3 0 4 0;
#X connect 3 1 7 0;
#X connect 3 2 11 0;
#X connect 3 3 15 0;
#X connect 3 4 19 0;
#X connect 4 0 5 0;
#X connect 5 0 6 0;
#X connect 6 0 23 0;
#X connect 7 0 8 0;
#X connect 8 0 9 0;
#X connect 9 0 10 0;
#X connect 10 0 23 1;
#X connect 11 0 12 0;
#X connect 12 0 13 0;
#X connect 13 0 14 0;
#X connect 14 0 24 1;
#X connect 15 0 16 0;
#X connect 16 0 17 0;
#X connect 17 0 18 0;
#X connect 18 0 25 1;
#X connect 19 0 20 0;
#X connect 20 0 21 0;
#X connect 21 0 22 0;
#X connect 22 0 26 1;
#X connect 23 0 24 0;
#X connect 24 0 25 0;
#X connect 25 0 26 0;
#X connect 26 0 27 0;
#X connect 27 0 57 0;
#X connect 27 0 59 0;
#X connect 28 0 29 0;
#X connect 29 0 30 1;
#X connect 30 0 45 0;
#X connect 31 0 32 0;
#X connect 32 0 33 1;
#X connect 33 0 45 1;
#X connect 34 0 35 0;
#X connect 35 0 36 1;
#X connect 36 0 45 2;
#X connect 37 0 38 0;
#X connect 38 0 39 1;
#X connect 39 0 45 3;
#X connect 40 0 41 0;
#X connect 41 0 42 0;
#X connect 42 0 43 1;
#X connect 43 0 45 4;
#X connect 44 0 30 0;
#X connect 44 1 33 0;
#X connect 44 2 36 0;
#X connect 44 3 39 0;
#X connect 44 4 43 0;
#X connect 45 0 46 0;
#X connect 46 0 47 0;
#X connect 47 0 48 1;
#X connect 48 0 49 0;
#X connect 49 0 65 0;
#X connect 50 0 51 0;
#X connect 51 0 52 0;
#X connect 52 0 53 0;
#X connect 53 0 54 0;
#X connect 54 0 55 0;
#X connect 55 0 56 0;
#X connect 56 0 57 1;
#X connect 57 0 58 0;
#X connect 58 0 59 1;
#X connect 59 0 48 0;
#X connect 60 0 61 0;
#X connect 61 0 62 0;
#X connect 62 0 63 0;
#X connect 63 0 64 0;
#X connect 64 0 97 0;
#X connect 65 0 74 0;
#X connect 67 0 68 0;
#X connect 68 0 72 1;
#X connect 69 0 70 0;
#X connect 70 0 71 0;
#X connect 71 0 72 0;
#X connect 72 0 73 0;
#X connect 73 0 74 0;
#X connect 74 0 75 0;
#X connect 75 0 76 0;
#X connect 76 0 93 0;
#X connect 76 0 94 0;
#X connect 77 0 78 0;
#X connect 78 0 79 0;
#X connect 79 0 80 0;
#X connect 80 0 81 0;
#X connect 81 0 82 0;
#X connect 82 0 89 1;
#X connect 83 0 84 0;
#X connect 84 0 85 0;
#X connect 85 0 86 0;
#X connect 86 0 87 0;
#X connect 87 0 88 0;
#X connect 88 0 89 0;
#X connect 89 0 90 0;
#X connect 90 0 91 0;
#X connect 90 0 92 0;
#X connect 91 0 93 1;
#X connect 92 0 94 1;
#X connect 93 0 95 0;
#X connect 94 0 96 0;
#X connect 97 0 65 0;
