#N canvas 0 38 1728 1027 12;
#X obj 113 90 inlet;
#X obj 111 520 line~;
#X obj 113 151 s \$0-trigger;
#X obj 262 215 r \$0-trigger;
#X text 113 60 Inlet 1: Trigger sample;
#X obj 928 764 outlet~;
#X text 928 784 Outlet 1: Output;
#X obj 113 118 route bang;
#X obj 322 93 inlet;
#X text 322 63 Inlet 2: Parameters;
#X obj 322 139 s \$0-reverseProb;
#X obj 312 384 r \$0-reverseProb;
#X text 33 495 Reverse ->;
#X text 267 489 <- Normal;
#X obj 410 170 s \$0-pitchProb;
#X obj 518 394 else/chance 50;
#X text 625 454 <- 1st: TRUE \, 2nd: FALSE;
#X obj 613 366 r \$0-pitchProb;
#X msg 613 507 2 \$1;
#X obj 613 530 pow;
#X msg 206 492 0 \, 1 \$1;
#X obj 262 238 t b b;
#X obj 294 412 <;
#X obj 294 361 random 100;
#X obj 118 433 list prepend;
#X obj 118 456 route 1 0;
#X text 323 413 1: TRUE \, 0: FALSE;
#X text 212 433 <- rev ratio;
#X msg 613 479 0;
#X obj 460 484 else/rand.i -1 1;
#X obj 471 149 s \$0-pitchRange;
#X obj 502 433 r \$0-pitchRange;
#X obj 502 456 unpack f f;
#N canvas 0 25 1920 1027 timestrecher 0;
#X obj 164 357 *~ 44100;
#X obj 170 258 samphold~;
#X text 105 256 sync ->;
#X text 292 131 plays 50 ms grains;
#X text 272 327 <- ratio;
#X obj 358 343 *~ 0.5;
#X obj 358 366 -~ 0.25;
#X obj 358 389 cos~;
#X obj 322 424 *~;
#X obj 235 327 *~ 1;
#X obj 726 173 +~ 0.5;
#X obj 726 196 wrap~;
#X obj 531 390 *~ 44100;
#X obj 588 278 samphold~;
#X text 639 360 <- ratio;
#X obj 725 376 *~ 0.5;
#X obj 725 399 -~ 0.25;
#X obj 725 422 cos~;
#X obj 689 457 *~;
#X obj 602 360 *~ 1;
#X obj 323 507 +~;
#X obj 219 169 inlet~;
#X text 215 143 Playhead;
#X obj 485 205 inlet;
#X obj 311 554 outlet~;
#X obj 164 380 tabread4~ sample\$1;
#X obj 531 413 tabread4~ sample\$1;
#X obj 476 70 r \$0-trigger;
#X msg 476 93 0;
#X obj 380 154 phasor~ 20;
#X obj 657 107 r \$0-grainRate;
#X obj 657 130 else/f2s~ 20;
#X obj 638 321 /~;
#X obj 270 288 /~;
#X obj 408 294 wrap~;
#X obj 731 287 wrap~;
#X obj 408 271 *~ 1;
#X obj 731 264 *~ 1;
#X connect 0 0 25 0;
#X connect 1 0 0 0;
#X connect 5 0 6 0;
#X connect 6 0 7 0;
#X connect 7 0 8 1;
#X connect 8 0 20 0;
#X connect 9 0 0 0;
#X connect 10 0 11 0;
#X connect 11 0 13 1;
#X connect 11 0 37 0;
#X connect 12 0 26 0;
#X connect 13 0 12 0;
#X connect 15 0 16 0;
#X connect 16 0 17 0;
#X connect 17 0 18 1;
#X connect 18 0 20 1;
#X connect 19 0 12 0;
#X connect 20 0 24 0;
#X connect 21 0 1 0;
#X connect 21 0 13 0;
#X connect 23 0 19 1;
#X connect 23 0 9 1;
#X connect 25 0 8 0;
#X connect 26 0 18 0;
#X connect 27 0 28 0;
#X connect 28 0 29 1;
#X connect 29 0 1 1;
#X connect 29 0 10 0;
#X connect 29 0 36 0;
#X connect 30 0 31 0;
#X connect 31 0 32 1;
#X connect 31 0 33 1;
#X connect 31 0 29 0;
#X connect 32 0 19 0;
#X connect 33 0 9 0;
#X connect 34 0 5 0;
#X connect 34 0 33 0;
#X connect 35 0 15 0;
#X connect 35 0 32 0;
#X connect 36 0 34 0;
#X connect 37 0 35 0;
#X restore 225 610 pd timestrecher;
#X obj 518 345 r \$0-trigger;
#X obj 681 212 s \$0-stretchRange;
#X obj 612 152 s \$0-stretchProb;
#X msg 131 336 2 \$1;
#X obj 131 359 pow;
#X obj -22 313 else/rand.i -1 1;
#X obj 20 285 unpack f f;
#X obj 20 262 r \$0-stretchRange;
#X obj -17 223 else/chance 50;
#X msg 130 302 0;
#X obj 89 136 bng 19 250 50 0 empty empty empty 0 -10 0 12 #fcfcfc #000000 #000000;
#X obj 78 195 r \$0-stretchProb;
#X obj 928 741 *~;
#X msg 1107 507 1 1 \, 0 1 1000;
#X obj 1041 701 vline~;
#X obj 131 382 * 1000;
#X msg 111 492 0.25 \, 0 \$1;
#X obj 775 153 s \$0-grainRate;
#X obj 322 116 route reverseProb pitchProb pitchRange stretchProb stretchRange grainRate envProb rampProb envRange, f 130;
#X obj 902 219 s \$0-envProb;
#X obj 996 160 s \$0-rampProb;
#X obj 1117 168 s \$0-envRange;
#X obj 1004 458 else/chance 50;
#X obj 1004 409 r \$0-trigger;
#X obj 1099 430 r \$0-envProb;
#X text 1122 483 1 second gate;
#X obj 974 539 r \$0-rampProb;
#X obj 958 564 <;
#X obj 955 519 random 100;
#X obj 860 462 t b b;
#X obj 821 622 route 1 0;
#X obj 839 524 unpack f f;
#X obj 839 501 r \$0-envRange;
#X msg 820 658 1 \$1 \, 0 1 \$1;
#X msg 953 657 1 1 \, 0 \$1 1;
#X text 684 556 decay time ->;
#X text 757 659 rampup;
#X text 966 639 ramp down;
#X obj 811 590 list prepend;
#X obj 789 554 else/rand.f 500 1000;
#X obj 655 5 loadbang;
#X msg 781 70 20;
#X connect 0 0 7 0;
#X connect 1 0 33 0;
#X connect 3 0 21 0;
#X connect 7 0 2 0;
#X connect 8 0 52 0;
#X connect 11 0 22 1;
#X connect 15 0 29 0;
#X connect 15 1 28 0;
#X connect 17 0 15 1;
#X connect 18 0 19 0;
#X connect 19 0 33 1;
#X connect 20 0 1 0;
#X connect 21 0 42 0;
#X connect 21 1 23 0;
#X connect 22 0 24 1;
#X connect 23 0 22 0;
#X connect 24 0 25 0;
#X connect 25 0 50 0;
#X connect 25 1 20 0;
#X connect 28 0 18 0;
#X connect 29 0 18 0;
#X connect 31 0 32 0;
#X connect 32 0 29 1;
#X connect 32 1 29 2;
#X connect 33 0 46 0;
#X connect 34 0 15 0;
#X connect 37 0 38 0;
#X connect 38 0 49 0;
#X connect 39 0 37 0;
#X connect 40 0 39 1;
#X connect 40 1 39 2;
#X connect 41 0 40 0;
#X connect 42 0 39 0;
#X connect 42 1 43 0;
#X connect 43 0 37 0;
#X connect 44 0 2 0;
#X connect 45 0 42 1;
#X connect 46 0 5 0;
#X connect 47 0 48 0;
#X connect 48 0 46 1;
#X connect 49 0 24 0;
#X connect 50 0 1 0;
#X connect 52 0 10 0;
#X connect 52 1 14 0;
#X connect 52 2 30 0;
#X connect 52 3 36 0;
#X connect 52 4 35 0;
#X connect 52 5 51 0;
#X connect 52 6 53 0;
#X connect 52 7 54 0;
#X connect 52 8 55 0;
#X connect 56 0 63 0;
#X connect 56 1 47 0;
#X connect 57 0 56 0;
#X connect 58 0 56 1;
#X connect 60 0 61 1;
#X connect 61 0 72 1;
#X connect 62 0 61 0;
#X connect 63 0 73 0;
#X connect 63 1 62 0;
#X connect 64 0 67 0;
#X connect 64 1 68 0;
#X connect 65 0 73 1;
#X connect 65 1 73 2;
#X connect 66 0 65 0;
#X connect 67 0 48 0;
#X connect 68 0 48 0;
#X connect 72 0 64 0;
#X connect 73 0 72 0;
#X connect 74 0 75 0;
#X connect 75 0 51 0;
