#N canvas 230 140 520 360 12;
#X obj 40 40 inlet~;
#X obj 180 40 inlet~;
#X obj 300 40 r StreetAuraLevel_idlework;
#X obj 300 70 + 100;
#X obj 300 100 dbtorms;
#X obj 300 130 pack f 20;
#X obj 300 160 line~;
#X obj 40 170 *~;
#X obj 180 170 *~;
#X obj 40 210 throw~ outputL;
#X obj 180 210 throw~ outputR;
#X obj 300 16 r StreetAuraLevel_idlework-r;
#X obj 40 250 +~;
#X obj 40 280 *~ 0.5;
#X obj 390 40 r street06ReverseProb_idlework;
#X obj 390 70 / 100;
#X obj 390 100 clip 0 1;
#X obj 390 130 pack f 20;
#X obj 390 160 line~;
#X obj 40 310 *~;
#X obj 40 340 throw~ reverb;
#X connect 0 0 7 0;
#X connect 1 0 8 0;
#X connect 2 0 3 0;
#X connect 3 0 4 0;
#X connect 4 0 5 0;
#X connect 5 0 6 0;
#X connect 6 0 7 1;
#X connect 6 0 8 1;
#X connect 7 0 9 0;
#X connect 8 0 10 0;
#X connect 7 0 12 0;
#X connect 8 0 12 1;
#X connect 12 0 13 0;
#X connect 14 0 15 0;
#X connect 15 0 16 0;
#X connect 16 0 17 0;
#X connect 17 0 18 0;
#X connect 13 0 19 0;
#X connect 18 0 19 1;
#X connect 19 0 20 0;
