#N canvas 39 91 1149 856 12;
#X obj 611 23 r StreetAuraToggle_idlework;
#X obj 458 50 sel 1 0;
#X obj 458 80 t b b;
#X msg 458 110 1;
#X msg 487 151 stop;
#X obj 532 120 del 3000;
#X msg 585 147 0;
#X obj 457 191 switch~;
#X obj 567 61 loadbang;
#X msg 567 91 0;
#X msg 61 432 start;
#X obj 76 461 streetAuraAdcCapture06_idlework;
#X text 8 238 Denoising (threshold);
#X text 18 258 Gate Threshold;
#X text 18 278 Pitch Threshold;
#X text 28 298 Voice range 200 - 800 Hz;
#X text 208 238 Recording system;
#X text 218 258 Delay;
#X text 348 238 Playback system;
#X text 8 368 Markov;
#X text 358 418 sequencer;
#X text 368 258 Reverse;
#X text 368 278 Pitch;
#X text 368 298 Time stretching;
#X text 488 298 Stuttering;
#X text 368 318 Jittering;
#X text 368 338 Filtering;
#X text 368 358 Grain size;
#X text 368 378 Grain window;
#X text 368 398 ^^^^;
#X text 18 388 Learning stage;
#X text 218 347 Pitch;
#X text 208 327 Metadata (MIR);
#X text 218 367 Duration;
#X text 218 387 Tonal / Atonal;
#X text 218 278 One Buffer;
#X text 218 298 Several buffers;
#X text 447 341 <- preset system;
#X msg 307 431 stop;
#X text -58 612 (MIDI);
#X text 218 407 Level;
#X obj 229 583 &&;
#X obj 5 559 else/ffdelay~ -samps 4096;
#X obj 4 835 *~;
#X msg 56 783 \$1 1;
#X obj 56 806 line~;
#X text 347 955 16 one second sample tables;
#X obj 295 821 i;
#X obj 295 844 % 16;
#X obj 335 821 + 1;
#X obj 269 768 bng 19 250 50 0 empty empty empty 0 -10 0 12 #fcfcfc #000000 #000000;
#X text 366 825 <- count and reset at 16;
#X obj 199 913 tabwrite~;
#X msg 295 872 set sample\$1;
#X obj 708 193 r StreetAuraToggle_idlework;
#X obj 866 777 clone samplePlayerStreet06 16;
#N canvas 0 25 1920 1027 grains 0;
#X obj 175 187 inlet~;
#X obj 178 264 delwrite~ granTape 2000;
#N canvas 0 25 1920 1027 grain1 0;
#X obj 455 184 loadbang;
#X msg 455 207 1;
#X obj 455 230 metro 50;
#X obj 536 230 else/rand.i 25 100;
#X msg 535 253 0 \, 1 \$1;
#X obj 535 276 line~;
#X obj 535 322 -~ 0.25;
#X obj 535 345 cos~;
#X obj 535 299 *~ 0.5;
#X obj 376 290 random 2000;
#X obj 376 313 delread~ granTape;
#X obj 498 376 *~;
#X obj 498 399 outlet~;
#X connect 0 0 1 0;
#X connect 1 0 2 0;
#X connect 2 0 3 0;
#X connect 2 0 9 0;
#X connect 3 0 2 1;
#X connect 3 0 4 0;
#X connect 4 0 5 0;
#X connect 5 0 8 0;
#X connect 6 0 7 0;
#X connect 7 0 11 1;
#X connect 8 0 6 0;
#X connect 9 0 10 0;
#X connect 10 0 11 0;
#X connect 11 0 12 0;
#X restore 447 198 pd grain1;
#N canvas 904 97 450 300 grain1 0;
#X obj 455 184 loadbang;
#X msg 455 207 1;
#X obj 455 230 metro 50;
#X obj 535 230 else/rand.i 25 100;
#X msg 535 253 0 \, 1 \$1;
#X obj 535 276 line~;
#X obj 535 322 -~ 0.25;
#X obj 535 345 cos~;
#X obj 535 299 *~ 0.5;
#X obj 376 290 random 2000;
#X obj 376 313 delread~ granTape;
#X obj 498 376 *~;
#X obj 498 399 outlet~;
#X connect 0 0 1 0;
#X connect 1 0 2 0;
#X connect 2 0 3 0;
#X connect 2 0 9 0;
#X connect 3 0 2 1;
#X connect 3 0 4 0;
#X connect 4 0 5 0;
#X connect 5 0 8 0;
#X connect 6 0 7 0;
#X connect 7 0 11 1;
#X connect 8 0 6 0;
#X connect 9 0 10 0;
#X connect 10 0 11 0;
#X connect 11 0 12 0;
#X restore 517 198 pd grain1;
#N canvas 904 97 450 300 grain1 0;
#X obj 455 184 loadbang;
#X msg 455 207 1;
#X obj 455 230 metro 50;
#X obj 535 230 else/rand.i 25 100;
#X msg 535 253 0 \, 1 \$1;
#X obj 535 276 line~;
#X obj 535 322 -~ 0.25;
#X obj 535 345 cos~;
#X obj 535 299 *~ 0.5;
#X obj 376 290 random 2000;
#X obj 376 313 delread~ granTape;
#X obj 498 376 *~;
#X obj 498 399 outlet~;
#X connect 0 0 1 0;
#X connect 1 0 2 0;
#X connect 2 0 3 0;
#X connect 2 0 9 0;
#X connect 3 0 2 1;
#X connect 3 0 4 0;
#X connect 4 0 5 0;
#X connect 5 0 8 0;
#X connect 6 0 7 0;
#X connect 7 0 11 1;
#X connect 8 0 6 0;
#X connect 9 0 10 0;
#X connect 10 0 11 0;
#X connect 11 0 12 0;
#X restore 587 198 pd grain1;
#N canvas 904 97 450 300 grain1 0;
#X obj 455 184 loadbang;
#X msg 455 207 1;
#X obj 455 230 metro 50;
#X obj 535 230 else/rand.i 25 100;
#X msg 535 253 0 \, 1 \$1;
#X obj 535 276 line~;
#X obj 535 322 -~ 0.25;
#X obj 535 345 cos~;
#X obj 535 299 *~ 0.5;
#X obj 376 290 random 2000;
#X obj 376 313 delread~ granTape;
#X obj 498 376 *~;
#X obj 498 399 outlet~;
#X connect 0 0 1 0;
#X connect 1 0 2 0;
#X connect 2 0 3 0;
#X connect 2 0 9 0;
#X connect 3 0 2 1;
#X connect 3 0 4 0;
#X connect 4 0 5 0;
#X connect 5 0 8 0;
#X connect 6 0 7 0;
#X connect 7 0 11 1;
#X connect 8 0 6 0;
#X connect 9 0 10 0;
#X connect 10 0 11 0;
#X connect 11 0 12 0;
#X restore 656 198 pd grain1;
#X obj 358 147 hip~ 200;
#X obj 358 170 lop~ 6000;
#X obj 358 193 *~ 0.9;
#X obj 446 243 /~ 4;
#X obj 447 307 outlet~;
#X connect 0 0 1 0;
#X connect 2 0 9 0;
#X connect 3 0 9 0;
#X connect 4 0 9 0;
#X connect 5 0 9 0;
#X connect 6 0 7 0;
#X connect 7 0 8 0;
#X connect 8 0 1 0;
#X connect 9 0 10 0;
#X connect 9 0 6 0;
#X restore 991 823 pd grains;
#X obj 1149 925 else/plate.rev~;
#X msg 1229 891 size 0.8 \, wet 0;
#X obj 229 606 sel 1;
#X obj 229 713 spigot 1;
#X msg 249 677 0;
#X msg 282 677 1;
#X obj 229 629 bng 19 250 50 0 empty empty empty 0 -10 0 12 #fcfcfc #000000 #000000;
#X msg 229 736 1;
#X msg 316 732 0;
#X obj 229 759 tgl 19 0 empty empty empty 0 -10 0 12 #fcfcfc #000000 #000000 0 1;
#X obj 22 491 else/highpass~ 200 0.4;
#X obj 22 514 else/highpass~ 200 0.4;
#X msg 379 789 0;
#X obj 542 547 > 0.5;
#X text 386 653 <- start recording on the first TRUE \, and stop recording after 300 ms have based after the last TRUE conditonal.;
#X obj 229 487 sigmund~ -hop 4096 -stabletime 200 -vibrato 2 -minpower 70 -growth 9 notes quality;
#X obj 316 652 delay 500;
#X obj 228 550 > 50;
#X text 263 552 146.8 Hz;
#X text 283 580 <- Record if there's a note higher than 146.8 Hz with a noise/signal ratio higher than 0.5;
#X msg 970 629 10;
#X msg 970 651 reverseProb \$1;
#X obj 1031 725 list prepend all;
#X obj 1031 748 list trim;
#X obj 888 998 streetAuraOutput06_idlework;
#X floatatom 469 908 5 0 0 0 - - - 0;
#X msg 469 930 vis \$1 1;
#X msg 1098 644 25;
#X msg 1098 666 pitchProb \$1;
#X msg 1034 574 -2 2;
#X msg 1034 600 pitchRange \$1 \$2;
#X msg 963 495 -1 1;
#X msg 1169 521 25;
#X msg 963 521 stretchRange \$1 \$2;
#X msg 1169 543 stretchProb \$1;
#X msg 1202 614 20;
#X msg 1202 636 grainRate \$1;
#X msg 1017 369 500 1000;
#X msg 1223 395 60;
#X msg 1256 488 40;
#X msg 1017 395 envRange \$1 \$2;
#X msg 1223 417 envProb \$1;
#X msg 1256 510 rampProb \$1;
#X msg 923 740 vis 1 1;
#X obj 647 297 bng 18 250 50 0 empty empty empty 17 7 0 10 #dcdcdc #000000 #000000;
#X msg 718 312 clear;
#X msg 697 290 55.5502 \, 51.7182 \, 57.8463 \, 63.1439 \, 53.366 \, 70.7897 \, 54.8925 \, 59.5011 \, 51.4801 \, 53.4387 \, 70.6564 \, 53.2538 \, 69.7175 \, 57.1621 \, 56.0614 \, 57.1065;
#X msg 760 363 1;
#X text 757 312 clear memory;
#X obj 648 414 else/display;
#X text 797 362 set order;
#X text 743 288 <-- 2) create markov chain and go to start;
#X obj 697 384 else/markov;
#X obj 539 816 f;
#X obj 268 790 t b b;
#X text 382 770 reset;
#X floatatom 636 746 5 0 0 0 - - - 0;
#X floatatom 636 791 5 0 0 0 - - - 0;
#X floatatom 406 853 5 0 0 0 - - - 0;
#X obj 161 469 bng 19 250 50 0 empty empty empty 0 -10 0 12 #fcfcfc #000000 #000000;
#X obj 229 523 t f f;
#X obj 733 226 r StreetAuraToggle_idlework;
#X obj 733 250 metro 10000;
#X text 1058 288 1) Records sample with pitch metadata;
#X text 1058 308 2) Creates a markov chain base on that;
#X text 1058 328 3) Plays back a variation;
#X obj 680 813 array;
#X obj 571 949 text define -k samplePitch;
#A set 57.2334 \; 57.5581 \; 51.7618 \; 55.9588 \; 58.199 \; 58.4356 \; 53.9677 \; 56.1626 \; 58.6205 \; 51.1176 \; 54.2247 \; 55.4432 \; 55.4898 \; 54.8998 \; 53.4553 \; 64.8955 \;;
#X obj 538 884 text set samplePitch;
#X obj 702 566 text search samplePitch near 0;
#X msg 608 921 clear;
#X obj 636 768 text get samplePitch;
#X floatatom 762 598 5 0 0 0 - - - 0;
#X obj 1091 819 r auraAmt_idlework;
#X obj 1088 843 clip 0 1;
#X obj 1088 865 else/f2s~ 20;
#X obj 871 916 *~;
#X obj 989 917 *~;
#X obj 909 849 sig~ 1;
#X obj 909 872 -~;
#X obj 871 939 +~;
#X obj 372 333 sel 1 0;
#X obj 842 543 random 16;
#X obj 477 218 r StreetAuraToggle_idlework-r;
#X obj 1091 795 r auraAmt_idlework-r;
#X obj 1338 192 r street06UnusedReverseProb_idlework;
#X obj 1313 334 r street06PitchProb_idlework;
#X obj 1340 408 r street06PitchLo_idlework;
#X obj 1407 432 r street06PitchHi_idlework;
#X obj 1340 480 r street06StretchLo_idlework;
#X obj 1378 502 r street06StretchHi_idlework;
#X obj 1340 552 r street06StretchProb_idlework;
#X obj 1340 576 r street06GrainRate_idlework;
#X obj 1340 600 r street06EnvLo_idlework;
#X obj 1340 624 r street06EnvHi_idlework;
#X obj 1340 672 r street06EnvProb_idlework;
#X obj 1340 696 r street06RampProb_idlework;
#X obj 1509 255 t b b b b;
#X msg 1531 362 create;
#X obj 1110 214 text tolist samplePitch;
#X msg 1648 384 clear;
#X obj 350 978 clone mytables 30;
#X obj 1280 788 else/pack2 f f;
#X obj 1340 528 else/pack2 f f;
#X obj 1340 456 else/pack2 f f;
#X obj -8 325 r clock;
#X obj -8 397 change;
#X obj -8 373 int;
#X floatatom -8 421 5 0 0 0 - - - 0;
#X obj 559 273 spigot;
#X obj -8 349 16;
#X connect 0 0 1 0;
#X connect 1 0 2 0;
#X connect 1 1 5 0;
#X connect 2 0 3 0;
#X connect 2 1 4 0;
#X connect 3 0 7 0;
#X connect 4 0 5 0;
#X connect 5 0 6 0;
#X connect 6 0 7 0;
#X connect 8 0 9 0;
#X connect 9 0 7 0;
#X connect 10 0 11 0;
#X connect 11 0 67 0;
#X connect 11 1 116 0;
#X connect 38 0 11 0;
#X connect 41 0 59 0;
#X connect 42 0 43 0;
#X connect 43 0 52 0;
#X connect 44 0 45 0;
#X connect 45 0 43 1;
#X connect 47 0 48 0;
#X connect 48 0 49 0;
#X connect 48 0 53 0;
#X connect 48 0 115 0;
#X connect 48 0 125 1;
#X connect 49 0 47 1;
#X connect 50 0 111 0;
#X connect 53 0 52 0;
#X connect 54 0 138 0;
#X connect 54 0 166 1;
#X connect 55 0 56 0;
#X connect 55 0 133 0;
#X connect 56 0 134 0;
#X connect 58 0 57 0;
#X connect 59 0 63 0;
#X connect 60 0 61 0;
#X connect 60 0 64 0;
#X connect 60 0 50 0;
#X connect 61 0 60 1;
#X connect 62 0 60 1;
#X connect 63 0 60 0;
#X connect 63 0 73 0;
#X connect 64 0 66 0;
#X connect 65 0 66 0;
#X connect 66 0 44 0;
#X connect 67 0 68 0;
#X connect 68 0 42 0;
#X connect 68 0 72 0;
#X connect 69 0 47 1;
#X connect 70 0 41 1;
#X connect 72 0 117 0;
#X connect 72 0 109 1;
#X connect 72 1 70 0;
#X connect 73 0 62 0;
#X connect 73 0 65 0;
#X connect 74 0 41 0;
#X connect 77 0 78 0;
#X connect 78 0 79 0;
#X connect 79 0 80 0;
#X connect 80 0 55 1;
#X connect 82 0 83 0;
#X connect 84 0 85 0;
#X connect 85 0 79 0;
#X connect 86 0 87 0;
#X connect 87 0 79 0;
#X connect 88 0 90 0;
#X connect 89 0 91 0;
#X connect 90 0 79 0;
#X connect 91 0 79 0;
#X connect 92 0 93 0;
#X connect 93 0 79 0;
#X connect 94 0 97 0;
#X connect 95 0 98 0;
#X connect 96 0 99 0;
#X connect 97 0 79 0;
#X connect 98 0 79 0;
#X connect 99 0 79 0;
#X connect 100 0 55 0;
#X connect 101 0 109 0;
#X connect 103 0 109 1;
#X connect 104 0 109 2;
#X connect 109 0 106 0;
#X connect 109 0 126 0;
#X connect 110 0 125 0;
#X connect 111 0 52 0;
#X connect 111 0 110 0;
#X connect 111 1 47 0;
#X connect 113 0 128 0;
#X connect 117 0 74 0;
#X connect 117 1 110 1;
#X connect 118 0 119 0;
#X connect 119 0 154 0;
#X connect 126 0 129 0;
#X connect 127 0 124 0;
#X connect 128 0 114 0;
#X connect 129 0 55 0;
#X connect 130 0 131 0;
#X connect 131 0 132 0;
#X connect 132 0 136 1;
#X connect 132 0 134 1;
#X connect 133 0 137 0;
#X connect 134 0 137 1;
#X connect 135 0 136 0;
#X connect 136 0 133 1;
#X connect 137 0 81 0;
#X connect 137 0 81 1;
#X connect 138 0 10 0;
#X connect 138 0 58 0;
#X connect 138 0 77 0;
#X connect 138 0 84 0;
#X connect 138 0 86 0;
#X connect 138 0 88 0;
#X connect 138 0 89 0;
#X connect 138 0 92 0;
#X connect 138 0 94 0;
#X connect 138 0 95 0;
#X connect 138 0 96 0;
#X connect 138 0 154 0;
#X connect 138 1 38 0;
#X connect 140 0 138 0;
#X connect 140 0 166 1;
#X connect 141 0 131 0;
#X connect 142 0 78 0;
#X connect 143 0 85 0;
#X connect 144 0 161 0;
#X connect 145 0 161 1;
#X connect 146 0 160 0;
#X connect 147 0 160 1;
#X connect 148 0 91 0;
#X connect 149 0 93 0;
#X connect 150 0 159 0;
#X connect 151 0 159 1;
#X connect 152 0 98 0;
#X connect 153 0 99 0;
#X connect 154 0 155 0;
#X connect 154 1 104 0;
#X connect 154 2 103 0;
#X connect 154 3 157 0;
#X connect 155 0 109 0;
#X connect 157 0 109 0;
#X connect 159 0 97 0;
#X connect 160 0 90 0;
#X connect 161 0 87 0;
#X connect 162 0 167 0;
#X connect 163 0 165 0;
#X connect 164 0 163 0;
#X connect 165 0 166 0;
#X connect 166 0 101 0;
#X connect 167 0 164 0;
