#N canvas 0 38 1512 916 12;
#X obj 66 178 inlet~;
#X obj 316 148 inlet~;
#X obj 96 257 else/highpass~ 100 0.707;
#X obj 96 315 *~ -1;
#X obj 346 257 else/highpass~ 100 0.707;
#X obj 96 404 *~;
#X obj 346 404 *~;
#X obj 66 432 +~;
#X obj 316 432 +~;
#X obj 66 461 outlet~;
#X obj 316 461 outlet~;
#X text 66 158 Inlet 1: Left Input;
#X text 316 128 Inlet 2: Right Input;
#X obj 602 180 inlet~;
#X obj 538 267 *~ 6;
#X obj 429 179 inlet~;
#X text 429 159 Inlet 3: Highpass (Hz);
#X text 602 160 Inlet 4: Width (0 - 200);
#X obj 96 286 else/ffdelay~ 12;
#X obj 346 286 else/ffdelay~ 12;
#X obj 772 180 inlet~;
#X obj 992 180 inlet~;
#X obj 992 204 phasor~;
#X obj 992 278 cos~;
#X obj 1052 254 +~ 0.5;
#X obj 1052 278 cos~;
#X obj 992 302 *~ 0.5;
#X obj 1052 302 *~ 0.5;
#X obj 1052 326 +~ 0.5;
#X obj 992 326 +~ 0.5;
#X obj 772 244 *~;
#X obj 842 244 *~;
#X obj 603 314 +~;
#X obj 673 319 +~;
#X obj 278 267 *~ 6;
#X obj 673 343 /~ 200;
#X obj 603 338 /~ 200;
#X text 1110 252 90 degree shift;
#X text 772 160 Inlet 5: Width Mod (0 - 200);
#X text 992 160 Inlet 6: Lfo Rate;
#X connect 0 0 2 0;
#X connect 0 0 7 0;
#X connect 1 0 4 0;
#X connect 1 0 8 0;
#X connect 2 0 18 0;
#X connect 3 0 5 0;
#X connect 4 0 19 0;
#X connect 5 0 7 1;
#X connect 6 0 8 1;
#X connect 7 0 9 0;
#X connect 8 0 10 0;
#X connect 13 0 32 0;
#X connect 13 0 33 0;
#X connect 14 0 19 1;
#X connect 15 0 2 1;
#X connect 15 0 4 1;
#X connect 18 0 3 0;
#X connect 19 0 6 0;
#X connect 20 0 30 0;
#X connect 20 0 31 0;
#X connect 21 0 22 0;
#X connect 22 0 23 0;
#X connect 22 0 24 0;
#X connect 23 0 26 0;
#X connect 24 0 25 0;
#X connect 25 0 27 0;
#X connect 26 0 29 0;
#X connect 27 0 28 0;
#X connect 28 0 31 1;
#X connect 29 0 30 1;
#X connect 30 0 32 1;
#X connect 31 0 33 1;
#X connect 32 0 36 0;
#X connect 33 0 35 0;
#X connect 34 0 18 1;
#X connect 35 0 14 0;
#X connect 35 0 6 1;
#X connect 36 0 34 0;
#X connect 36 0 5 1;
