#N canvas 159 310 900 650 10;
#X obj 30 30 loadbang;
#X obj 30 90 soundfiler;
#X obj 180 30 samplerate~;
#X obj 30 120 t f f;
#X obj 30 150 / 4;
#X obj 30 180 s 1059-seglen;
#X obj 180 60 f;
#X obj 230 120 r 1059-sr;
#X obj 330 120 r 1059-seglen;
#X obj 230 150 expr ($f2*1000)/max($f1\\\,1);
#X obj 230 180 s 1059-segms;
#X obj 30 240 inlet;
#X obj 30 270 f 0;
#X obj 30 300 t f f;
#X obj 30 330 *;
#X obj 30 360 t f f;
#X obj 130 360 +;
#X obj 130 330 r 1059-seglen;
#X obj 230 330 r 1059-segms;
#X obj 30 390 pack f f f;
#X msg 30 420 \$1 \, \$2 \$3;
#X obj 30 450 vline~;
#X obj 30 480 tabread4~ z1tab;
#X obj 320 270 f 0;
#X msg 320 300 0 \, 1 5 \, 0 8 \$1;
#X obj 320 330 vline~;
#X obj 30 510 *~;
#X obj 30 540 outlet~;
#X obj 90 300 + 1;
#X obj 90 330 mod 4;
#X obj 380 240 r 1059-segms;
#X obj 510 30 table z1tab;
#X obj 520 60 r zilsReload;
#X msg 30 60 read -resize ../Audios/zils_fills_2.wav z1tab;
#X obj 180 90 s 1059-sr;
#X connect 0 0 33 0;
#X connect 0 0 2 0;
#X connect 1 0 3 0;
#X connect 2 0 6 0;
#X connect 6 0 34 0;
#X connect 3 0 4 0;
#X connect 4 0 5 0;
#X connect 7 0 9 0;
#X connect 8 0 9 1;
#X connect 9 0 10 0;
#X connect 11 0 12 0;
#X connect 11 0 23 0;
#X connect 12 0 13 0;
#X connect 13 0 14 0;
#X connect 13 1 28 0;
#X connect 14 0 15 0;
#X connect 15 0 19 0;
#X connect 15 1 16 0;
#X connect 16 0 19 1;
#X connect 17 0 14 1;
#X connect 17 0 16 1;
#X connect 18 0 19 2;
#X connect 19 0 20 0;
#X connect 20 0 21 0;
#X connect 21 0 22 0;
#X connect 22 0 26 0;
#X connect 23 0 24 0;
#X connect 24 0 25 0;
#X connect 25 0 26 1;
#X connect 26 0 27 0;
#X connect 28 0 29 0;
#X connect 29 0 12 1;
#X connect 30 0 23 1;
#X connect 32 0 33 0;
#X connect 33 0 1 0;
