#N canvas 70 40 1320 980 10;
#X obj 30 30 inlet~;
#X obj 30 60 s~ \$0-in;
#X obj 30 100 r~ \$0-in;
#X obj 30 130 hip~ 3000;
#X obj 30 160 *~ 0.95;
#X obj 30 190 s~ \$0-high;
#X obj 170 100 r~ \$0-in;
#X obj 170 130 lop~ 3000;
#X obj 170 160 clip~ -1 1;
#X obj 170 190 s~ \$0-low;
#X obj 320 100 r~ \$0-low;
#X obj 320 130 env~ 2048;
#X obj 320 160 dbtorms;
#X obj 320 190 rmstodb;
#X obj 320 220 expr max(-4\\\, min(4\\\, 86-$f1));
#X obj 320 250 + 100;
#X obj 320 280 dbtorms;
#X obj 320 310 pack f 180;
#X obj 320 340 line~;
#X obj 320 370 s~ \$0-trim;
#X obj 490 100 r~ \$0-low;
#X obj 490 130 r~ \$0-trim;
#X obj 490 160 *~;
#X obj 490 190 s~ \$0-lowtrim;
#X obj 650 100 r~ \$0-lowtrim;
#X obj 730 100 r~ \$0-drive;
#X obj 650 130 *~;
#X obj 650 160 s~ \$0-lowdrv;
#X obj 30 250 r~ \$0-lowdrv;
#X obj 30 280 expr~ tanh($v1);
#X obj 30 310 r~ \$0-wA;
#X obj 30 340 *~;
#X obj 30 370 s~ \$0-sA;
#X obj 190 250 r~ \$0-lowdrv;
#X obj 190 280 expr~ tanh($v1 + 0.15*($v1*$v1));
#X obj 190 310 r~ \$0-wB;
#X obj 190 340 *~;
#X obj 190 370 s~ \$0-sB;
#X obj 370 250 r~ \$0-lowdrv;
#X obj 370 280 expr~ tanh((1.2*$v1)-(0.18*pow($v1\\\,3)));
#X obj 370 310 r~ \$0-wC;
#X obj 370 340 *~;
#X obj 370 370 s~ \$0-sC;
#X obj 550 250 r~ \$0-lowdrv;
#X obj 550 280 r~ \$0-wD;
#X obj 550 310 *~;
#X obj 550 340 s~ \$0-sD;
#X obj 30 430 r~ \$0-sA;
#X obj 120 430 r~ \$0-sB;
#X obj 30 460 +~;
#X obj 210 430 r~ \$0-sC;
#X obj 30 490 +~;
#X obj 300 430 r~ \$0-sD;
#X obj 30 520 +~;
#X obj 30 550 s~ \$0-shaped;
#X obj 460 430 r~ \$0-shaped;
#X obj 550 430 r~ \$0-fb;
#X obj 460 460 +~;
#X obj 460 490 delwrite~ \$0-zlb_diff 200;
#X obj 700 430 r~ \$0-lfohz;
#X obj 700 460 phasor~;
#X obj 700 490 -~ 0.5;
#X obj 700 520 abs~;
#X obj 700 550 *~ 2;
#X obj 700 580 *~ 3;
#X obj 790 580 r~ \$0-dbase;
#X obj 700 610 +~;
#X obj 700 640 vd~ \$0-zlb_diff;
#X obj 700 670 s~ \$0-diff;
#X obj 900 430 r~ \$0-diff;
#X obj 900 460 lop~ 5000;
#X obj 980 460 r \$0-fblp;
#X obj 900 490 *~ 1;
#X obj 980 490 r~ \$0-fbamt;
#X obj 900 520 *~;
#X obj 900 550 s~ \$0-fb;
#X obj 460 570 r~ \$0-shaped;
#X obj 540 570 r~ \$0-wetinv;
#X obj 460 600 *~;
#X obj 630 570 r~ \$0-diff;
#X obj 700 697 r~ \$0-wet;
#X obj 630 600 *~;
#X obj 460 630 +~;
#X obj 460 660 lop~ 9000;
#X obj 560 660 r \$0-bright;
#X obj 460 690 s~ \$0-lowout;
#X obj 30 620 r~ \$0-high;
#X obj 120 620 r~ \$0-lowout;
#X obj 30 650 +~;
#X obj 30 680 s~ \$0-mono;
#X obj 220 620 r~ \$0-diff;
#X obj 300 620 r~ \$0-width;
#X obj 220 650 *~;
#X obj 430 620 r~ \$0-mono;
#X obj 430 650 +~;
#X obj 430 680 outlet~;
#X obj 560 620 r~ \$0-mono;
#X obj 560 650 -~;
#X obj 560 680 outlet~;
#X obj 30 730 r clock;
#X obj 30 760 int;
#X obj 30 790 change;
#X obj 30 820 f 0;
#X obj 90 820 + 1;
#X obj 30 850 mod 1;
#X obj 30 880 sel 0;
#X obj 30 910 t b b b b b b b b b b b;
#X obj 220 730 random 601;
#X obj 220 760 + 300;
#X obj 220 790 s \$0-ramp;
#X obj 330 730 random 4;
#X obj 330 760 s \$0-shape;
#X obj 430 730 random 21;
#X obj 430 760 - 10;
#X obj 430 790 / 100;
#X obj 430 820 + 1;
#X obj 510 820 r \$0-macro;
#X obj 430 850 *;
#X obj 430 880 min 1.22;
#X obj 430 910 max 0.82;
#X obj 430 940 pack f f;
#X obj 510 940 r \$0-ramp;
#X obj 430 970 line~;
#X obj 430 1000 s~ \$0-drive;
#X obj 620 730 random 81;
#X obj 620 760 / 1000;
#X obj 620 790 + 0.08;
#X obj 620 880 pack f f;
#X obj 700 880 r \$0-ramp;
#X obj 620 910 line~;
#X obj 620 940 s~ \$0-wet;
#X obj 760 910 r~ \$0-wet;
#X obj 760 940 expr~ 1-$v1;
#X obj 760 970 s~ \$0-wetinv;
#X obj 30 1040 random 61;
#X obj 30 1070 / 10;
#X obj 30 1100 + 8;
#X obj 30 1130 pack f f;
#X obj 110 1130 r \$0-ramp;
#X obj 30 1160 line~;
#X obj 30 1190 s~ \$0-dbase;
#X obj 180 1040 random 71;
#X obj 180 1070 / 1000;
#X obj 180 1130 pack f f;
#X obj 260 1130 r \$0-ramp;
#X obj 180 1160 line~;
#X obj 180 1190 s~ \$0-lfohz;
#X obj 350 1040 random 121;
#X obj 350 1070 / 1000;
#X obj 350 1130 pack f f;
#X obj 430 1130 r \$0-ramp;
#X obj 350 1160 line~;
#X obj 350 1190 s~ \$0-fbamt;
#X obj 520 1040 random 4001;
#X obj 520 1070 + 3000;
#X obj 520 1100 pack f f;
#X obj 600 1100 r \$0-ramp;
#X obj 520 1130 line;
#X obj 520 1160 s \$0-fblp;
#X obj 690 1040 random 4001;
#X obj 690 1070 + 7000;
#X obj 690 1100 pack f f;
#X obj 770 1100 r \$0-ramp;
#X obj 690 1130 line;
#X obj 690 1160 s \$0-bright;
#X obj 860 1040 random 121;
#X obj 860 1070 / 1000;
#X obj 860 1100 + 0.12;
#X obj 860 1130 pack f f;
#X obj 940 1130 r \$0-ramp;
#X obj 860 1160 line~;
#X obj 860 1190 s~ \$0-width;
#X obj 1030 1040 f 0;
#X obj 1090 1040 + 1;
#X obj 1030 1070 mod 32;
#X obj 1030 1100 t f f;
#X obj 1110 1100 s \$0-cnt;
#X obj 1030 1130 expr 1 + 0.04*cos(6.28318*$f1/32);
#X obj 1030 1160 s \$0-macro;
#X obj 1160 730 loadbang;
#X msg 1160 760 400;
#X obj 1160 790 s \$0-ramp;
#X msg 1230 760 1;
#X obj 1230 790 s \$0-macro;
#X obj 30 1240 r \$0-shape;
#X obj 30 1270 t f f f f;
#X obj 30 1300 == 0;
#X obj 150 1300 == 1;
#X obj 270 1300 == 2;
#X obj 390 1300 == 3;
#X obj 30 1330 pack f f;
#X obj 110 1330 r \$0-ramp;
#X obj 30 1360 line~;
#X obj 30 1390 s~ \$0-wA;
#X obj 180 1330 pack f f;
#X obj 260 1330 r \$0-ramp;
#X obj 180 1360 line~;
#X obj 180 1390 s~ \$0-wB;
#X obj 330 1330 pack f f;
#X obj 410 1330 r \$0-ramp;
#X obj 330 1360 line~;
#X obj 330 1390 s~ \$0-wC;
#X obj 480 1330 pack f f;
#X obj 560 1330 r \$0-ramp;
#X obj 480 1360 line~;
#X obj 480 1390 s~ \$0-wD;
#X text 30 5 zils loop bender: transient-safe + low-band auto-trim + bar-locked subtle evolution;
#X obj 620 820 min 0.3;
#X obj 620 850 max 0.6;
#X obj 350 1100 + 0.48;
#X obj 180 1100 + 0.43;
#X connect 0 0 1 0;
#X connect 2 0 3 0;
#X connect 3 0 4 0;
#X connect 4 0 5 0;
#X connect 6 0 7 0;
#X connect 7 0 8 0;
#X connect 8 0 9 0;
#X connect 10 0 11 0;
#X connect 11 0 12 0;
#X connect 12 0 13 0;
#X connect 13 0 14 0;
#X connect 14 0 15 0;
#X connect 15 0 16 0;
#X connect 16 0 17 0;
#X connect 17 0 18 0;
#X connect 18 0 19 0;
#X connect 20 0 22 0;
#X connect 21 0 22 1;
#X connect 22 0 23 0;
#X connect 24 0 26 0;
#X connect 25 0 26 1;
#X connect 26 0 27 0;
#X connect 28 0 29 0;
#X connect 29 0 31 0;
#X connect 30 0 31 1;
#X connect 31 0 32 0;
#X connect 33 0 34 0;
#X connect 34 0 36 0;
#X connect 35 0 36 1;
#X connect 36 0 37 0;
#X connect 38 0 39 0;
#X connect 39 0 41 0;
#X connect 40 0 41 1;
#X connect 41 0 42 0;
#X connect 43 0 45 0;
#X connect 44 0 45 1;
#X connect 45 0 46 0;
#X connect 47 0 49 0;
#X connect 48 0 49 1;
#X connect 49 0 51 0;
#X connect 50 0 51 1;
#X connect 51 0 53 0;
#X connect 52 0 53 1;
#X connect 53 0 54 0;
#X connect 55 0 57 0;
#X connect 56 0 57 1;
#X connect 57 0 58 0;
#X connect 59 0 60 0;
#X connect 60 0 61 0;
#X connect 61 0 62 0;
#X connect 62 0 63 0;
#X connect 63 0 64 0;
#X connect 64 0 66 0;
#X connect 65 0 66 1;
#X connect 66 0 67 0;
#X connect 67 0 68 0;
#X connect 69 0 70 0;
#X connect 70 0 72 0;
#X connect 71 0 70 1;
#X connect 72 0 74 0;
#X connect 73 0 74 1;
#X connect 74 0 75 0;
#X connect 76 0 78 0;
#X connect 77 0 78 1;
#X connect 78 0 82 0;
#X connect 79 0 81 0;
#X connect 80 0 81 1;
#X connect 81 0 82 1;
#X connect 82 0 83 0;
#X connect 83 0 85 0;
#X connect 84 0 83 1;
#X connect 86 0 88 0;
#X connect 87 0 88 1;
#X connect 88 0 89 0;
#X connect 90 0 92 0;
#X connect 90 0 97 1;
#X connect 91 0 92 1;
#X connect 92 0 94 0;
#X connect 93 0 94 1;
#X connect 94 0 95 0;
#X connect 96 0 97 0;
#X connect 97 0 98 0;
#X connect 99 0 100 0;
#X connect 100 0 101 0;
#X connect 101 0 102 0;
#X connect 102 0 103 0;
#X connect 103 0 104 0;
#X connect 104 0 105 0;
#X connect 105 0 106 0;
#X connect 106 0 107 0;
#X connect 106 1 110 0;
#X connect 106 2 112 0;
#X connect 106 3 124 0;
#X connect 106 4 134 0;
#X connect 106 5 141 0;
#X connect 106 6 147 0;
#X connect 106 7 153 0;
#X connect 106 8 159 0;
#X connect 106 9 165 0;
#X connect 106 10 172 0;
#X connect 107 0 108 0;
#X connect 108 0 109 0;
#X connect 110 0 111 0;
#X connect 112 0 113 0;
#X connect 113 0 114 0;
#X connect 114 0 115 0;
#X connect 115 0 117 0;
#X connect 116 0 117 1;
#X connect 117 0 118 0;
#X connect 118 0 119 0;
#X connect 119 0 120 0;
#X connect 120 0 122 0;
#X connect 121 0 120 1;
#X connect 122 0 123 0;
#X connect 124 0 125 0;
#X connect 125 0 126 0;
#X connect 126 0 207 0;
#X connect 127 0 129 0;
#X connect 128 0 127 1;
#X connect 129 0 130 0;
#X connect 131 0 132 0;
#X connect 132 0 133 0;
#X connect 134 0 135 0;
#X connect 135 0 136 0;
#X connect 136 0 137 0;
#X connect 137 0 139 0;
#X connect 138 0 137 1;
#X connect 139 0 140 0;
#X connect 141 0 142 0;
#X connect 142 0 210 0;
#X connect 143 0 145 0;
#X connect 144 0 143 1;
#X connect 145 0 146 0;
#X connect 147 0 148 0;
#X connect 148 0 209 0;
#X connect 149 0 151 0;
#X connect 150 0 149 1;
#X connect 151 0 152 0;
#X connect 153 0 154 0;
#X connect 154 0 155 0;
#X connect 155 0 157 0;
#X connect 156 0 155 1;
#X connect 157 0 158 0;
#X connect 159 0 160 0;
#X connect 160 0 161 0;
#X connect 161 0 163 0;
#X connect 162 0 161 1;
#X connect 163 0 164 0;
#X connect 165 0 166 0;
#X connect 166 0 167 0;
#X connect 167 0 168 0;
#X connect 168 0 170 0;
#X connect 169 0 168 1;
#X connect 170 0 171 0;
#X connect 172 0 173 0;
#X connect 172 0 174 0;
#X connect 173 0 172 1;
#X connect 174 0 175 0;
#X connect 175 0 177 0;
#X connect 175 1 176 0;
#X connect 177 0 178 0;
#X connect 179 0 180 0;
#X connect 179 0 182 0;
#X connect 179 0 106 0;
#X connect 180 0 181 0;
#X connect 182 0 183 0;
#X connect 184 0 185 0;
#X connect 185 0 186 0;
#X connect 185 1 187 0;
#X connect 185 2 188 0;
#X connect 185 3 189 0;
#X connect 186 0 190 0;
#X connect 187 0 194 0;
#X connect 188 0 198 0;
#X connect 189 0 202 0;
#X connect 190 0 192 0;
#X connect 191 0 190 1;
#X connect 192 0 193 0;
#X connect 194 0 196 0;
#X connect 195 0 194 1;
#X connect 196 0 197 0;
#X connect 198 0 200 0;
#X connect 199 0 198 1;
#X connect 200 0 201 0;
#X connect 202 0 204 0;
#X connect 203 0 202 1;
#X connect 204 0 205 0;
#X connect 207 0 208 0;
#X connect 208 0 127 0;
#X connect 209 0 149 0;
#X connect 210 0 143 0;
